<?xml version="1.0" standalone="no"?>
<!DOCTYPE svg PUBLIC "-//W3C//DTD SVG 20010904//EN"
 "http://www.w3.org/TR/2001/REC-SVG-20010904/DTD/svg10.dtd">
<svg version="1.0" xmlns="http://www.w3.org/2000/svg"
 width="1416.000000pt" height="1416.000000pt" viewBox="0 0 1416.000000 1416.000000"
 preserveAspectRatio="xMidYMid meet">
<metadata>
Created by potrace 1.11, written by Peter Selinger 2001-2013
</metadata>
<g transform="translate(0.000000,1416.000000) scale(0.100000,-0.100000)"
fill="#000000" stroke="none">
<path d="M4819 11318 c0 -7 -2 -21 -4 -30 -2 -10 -6 -50 -9 -90 -3 -40 -9 -98
-13 -128 -3 -30 -7 -72 -7 -92 -1 -21 -3 -38 -6 -38 -3 0 -6 -17 -7 -38 -1
-20 -5 -55 -8 -77 -9 -57 -13 -83 -19 -146 -4 -31 -9 -67 -11 -80 -5 -23 -11
-63 -21 -144 -3 -22 -7 -51 -9 -65 -2 -14 -6 -43 -9 -65 -3 -22 -8 -51 -11
-65 -3 -14 -8 -47 -11 -75 -4 -27 -9 -54 -12 -59 -3 -5 -6 -25 -8 -45 -1 -20
-10 -72 -18 -116 -23 -119 -26 -135 -37 -197 -19 -106 -20 -113 -25 -138 -3
-14 -7 -38 -9 -55 -3 -16 -7 -46 -11 -65 -12 -72 -24 -159 -29 -225 -2 -22 -4
-40 -5 -40 -11 0 -17 -399 -7 -440 3 -11 6 -20 7 -20 1 0 3 -15 6 -33 2 -18 9
-42 14 -53 6 -10 8 -19 5 -19 -10 0 54 -115 82 -145 65 -71 121 -94 261 -109
67 -7 89 -35 107 -136 10 -53 6 -415 -5 -415 -1 0 -3 -16 -4 -35 -7 -82 -17
-181 -22 -212 -2 -18 -6 -51 -8 -73 -2 -22 -7 -64 -11 -92 -3 -29 -3 -53 2
-54 4 0 17 -3 28 -5 11 -3 81 -8 155 -11 l135 -5 0 333 c1 299 3 367 18 487 8
64 29 121 57 154 27 32 30 33 106 34 158 3 252 47 314 149 13 22 26 42 29 45
4 3 7 10 8 15 1 6 12 35 23 65 12 30 23 67 26 83 10 65 13 83 18 106 24 110
24 449 1 731 -15 176 -17 211 -20 275 -2 39 -5 70 -6 70 -1 0 -3 23 -5 50 -15
257 -16 287 -29 630 -3 77 -6 168 -8 203 -1 36 2 62 8 62 7 0 7 3 0 8 -6 4
-10 80 -10 195 0 114 -4 191 -10 195 -17 11 -95 9 -96 -2 -1 -6 -3 -445 -4
-976 -2 -896 -5 -1032 -20 -1179 -12 -120 -45 -212 -82 -232 -48 -26 -80 16
-108 141 -42 190 -38 879 10 1800 3 52 8 136 10 185 3 50 7 133 10 186 l5 96
-49 0 c-27 0 -53 3 -59 7 -6 3 -13 3 -16 -2 -2 -4 -7 -125 -11 -267 -3 -143
-8 -305 -10 -360 -3 -55 -7 -176 -10 -270 -3 -93 -8 -231 -10 -305 -8 -227
-19 -456 -31 -630 -11 -158 -12 -165 -14 -165 -1 0 -3 -20 -4 -45 -1 -25 -4
-50 -7 -55 -3 -6 -5 -27 -4 -47 0 -21 -3 -38 -8 -38 -4 0 -6 -4 -3 -8 3 -5 -2
-40 -9 -78 -41 -194 -114 -213 -140 -38 -14 95 -15 121 -15 334 1 240 2 276
12 285 4 4 3 17 -2 30 -5 13 -7 25 -4 27 2 3 6 56 9 119 8 168 23 401 40 604
3 33 7 96 10 140 2 44 7 109 9 145 3 36 8 99 11 140 3 41 7 102 10 135 22 251
27 355 18 356 -68 6 -113 4 -114 -5 -5 -39 -7 -78 -13 -221 -4 -88 -9 -189
-11 -225 -3 -36 -7 -112 -10 -170 -7 -125 -13 -230 -21 -365 -4 -55 -7 -124
-8 -152 0 -29 -3 -53 -6 -53 -3 0 -5 -26 -6 -58 0 -31 -4 -93 -8 -137 -4 -44
-9 -105 -11 -135 -12 -147 -25 -277 -40 -390 -4 -30 -9 -64 -10 -75 -1 -11 -4
-20 -5 -20 -1 0 -3 -13 -4 -30 -1 -16 -6 -43 -9 -60 -7 -29 -12 -54 -22 -105
-3 -14 -15 -54 -28 -90 -18 -49 -32 -71 -58 -88 l-34 -23 -22 26 c-13 14 -25
38 -29 53 -3 15 -9 36 -13 47 -9 21 -6 382 3 465 3 25 8 77 11 115 3 39 7 88
10 110 3 22 7 63 10 90 2 28 5 50 5 50 1 0 3 20 5 45 1 25 6 68 10 95 4 28 8
74 10 102 2 29 6 67 9 85 2 18 8 69 11 113 4 44 9 83 11 86 2 3 6 47 9 96 3
50 8 101 10 113 2 12 7 49 10 83 3 34 8 80 11 102 3 22 7 65 9 95 3 30 7 75
11 100 3 25 7 65 10 90 2 25 6 63 8 85 3 22 8 70 11 106 l7 66 -56 2 c-40 1
-56 -2 -57 -11z"/>
<path d="M6750 9326 c-5 -5 -10 -7 -10 -4 0 4 -22 -2 -49 -12 -130 -47 -259
-171 -366 -350 -21 -36 -43 -66 -47 -68 -4 -2 -8 -10 -8 -17 0 -8 -11 -35 -24
-60 -25 -46 -107 -241 -110 -260 -1 -5 -7 -23 -13 -40 -12 -30 -44 -139 -49
-164 -1 -7 -8 -35 -14 -61 -6 -26 -13 -56 -15 -66 -2 -11 -4 -19 -5 -19 -1 0
-3 -16 -6 -35 -2 -19 -7 -46 -10 -60 -10 -36 -12 -46 -19 -104 -3 -28 -7 -64
-9 -81 -12 -93 -23 -390 -16 -415 1 -3 3 -27 6 -55 9 -110 19 -172 38 -252 4
-13 8 -31 10 -40 31 -132 136 -325 219 -402 63 -59 104 -92 129 -102 15 -6 28
-15 28 -20 0 -5 8 -9 18 -9 10 0 22 -4 27 -9 6 -5 39 -19 75 -31 118 -38 128
-49 154 -171 21 -98 10 -659 -13 -682 -6 -6 -11 -8 -11 -5 0 3 -26 0 -57 -6
-76 -16 -393 -9 -422 8 -4 3 -21 7 -37 10 -90 16 -325 117 -364 156 -3 3 -22
18 -42 33 -49 37 -155 145 -176 180 -9 15 -20 27 -24 27 -4 0 -8 6 -8 14 0 8
-4 16 -8 18 -7 3 -65 95 -68 108 0 3 -15 34 -31 70 -43 91 -92 240 -110 330
-8 39 -11 55 -13 55 -1 0 -5 25 -15 100 -3 22 -8 56 -10 75 -3 19 -7 65 -9
102 -2 36 -6 71 -10 76 -3 6 -2 13 3 17 6 3 8 12 4 20 -9 26 -8 175 2 175 5 0
5 4 -1 10 -10 10 -57 15 -238 25 l-88 4 6 -132 c9 -202 18 -285 46 -427 6 -30
13 -66 16 -80 2 -14 6 -34 9 -45 2 -11 5 -24 6 -30 1 -5 6 -21 11 -35 5 -14
11 -33 13 -43 7 -34 16 -62 42 -127 57 -146 79 -192 125 -269 21 -34 38 -67
38 -72 0 -5 4 -9 9 -9 5 0 13 -9 16 -20 3 -11 12 -26 18 -32 7 -7 30 -36 51
-63 79 -102 238 -240 336 -293 64 -35 126 -66 133 -68 4 -1 9 -3 12 -4 3 -1 8
-3 13 -5 4 -1 21 -7 37 -14 17 -7 37 -14 45 -16 8 -3 40 -11 70 -20 106 -31
249 -48 390 -49 99 0 225 10 253 19 6 2 23 6 37 9 113 19 298 107 425 203 106
81 288 261 338 335 8 13 25 34 37 48 12 14 40 53 63 88 23 34 45 62 49 62 4 0
8 4 8 9 0 5 32 59 70 120 39 62 70 114 70 116 0 3 18 34 40 70 22 36 40 70 40
75 0 6 4 10 8 10 5 0 16 16 25 36 15 30 71 130 207 369 13 22 35 60 49 85 13
25 28 47 31 50 3 3 12 20 19 38 8 17 17 32 21 32 4 0 13 14 20 30 7 17 16 30
21 30 5 0 9 5 9 10 0 11 93 153 114 176 6 7 20 24 31 40 56 77 198 222 258
262 65 44 151 94 167 97 8 2 16 4 18 5 1 2 5 3 10 5 4 1 14 5 22 8 61 28 224
39 310 21 19 -4 44 -9 55 -10 36 -7 50 -10 70 -18 11 -4 34 -12 50 -18 17 -6
62 -26 101 -44 39 -19 76 -34 82 -34 14 0 43 41 36 51 -4 7 -167 90 -184 94
-3 1 -14 5 -25 10 -75 30 -88 34 -95 30 -5 -3 -11 -1 -14 4 -9 13 -114 29
-211 32 -240 5 -478 -121 -700 -372 -93 -104 -205 -251 -205 -269 0 -6 -7 -13
-15 -16 -8 -4 -15 -10 -15 -14 0 -5 -31 -56 -70 -113 -38 -58 -75 -117 -81
-131 -7 -14 -16 -26 -21 -26 -4 0 -8 -4 -8 -10 0 -8 -35 -66 -147 -246 -7 -10
-26 -44 -44 -74 -17 -30 -35 -57 -38 -60 -4 -3 -29 -41 -56 -85 -130 -214
-276 -406 -415 -550 -82 -85 -211 -195 -229 -195 -11 0 -14 71 -15 295 0 186
7 269 25 291 5 6 7 13 4 16 -12 12 54 65 95 77 112 32 272 131 333 208 10 13
25 30 33 37 8 8 14 17 14 20 0 3 13 24 29 48 76 112 135 295 158 486 9 77 9
423 0 497 -4 28 -9 73 -12 100 -3 28 -7 59 -10 71 -2 12 -7 39 -10 60 -4 21
-8 50 -11 64 -3 14 -8 39 -11 55 -8 46 -11 60 -13 60 -1 0 -3 9 -5 19 -2 11
-6 29 -9 40 -3 12 -6 26 -7 31 -1 6 -6 21 -11 35 -5 14 -11 33 -14 44 -21 104
-210 536 -235 536 -5 0 -8 3 -7 8 3 7 -12 29 -65 100 -47 62 -127 140 -176
171 -25 17 -51 35 -58 41 -7 5 -18 10 -25 10 -7 0 -24 6 -38 13 -14 7 -45 14
-70 16 -25 2 -57 4 -72 5 -16 1 -32 -2 -38 -8z"/>
<path d="M5809 5219 c-12 -7 -18 -129 -6 -129 5 0 5 -5 1 -12 -10 -16 -11
-228 -1 -228 5 0 5 -5 1 -12 -10 -16 -11 -228 -1 -228 5 0 5 -5 1 -12 -12 -18
-10 -107 1 -111 6 -2 28 -3 50 -3 l40 1 3 157 3 158 82 -4 c124 -5 132 -12
224 -191 l61 -120 50 -1 c43 0 50 3 49 18 -1 10 -4 18 -8 18 -3 0 -17 25 -30
55 -13 30 -26 55 -30 55 -3 0 -12 18 -19 40 -7 22 -17 40 -22 40 -4 0 -7 4 -6
8 2 5 -14 30 -34 57 -21 27 -38 44 -38 39 0 -5 -4 -2 -10 6 -7 11 1 20 31 38
21 13 39 28 39 33 0 6 7 17 15 25 15 16 18 35 17 112 -1 91 -39 145 -122 176
-33 12 -84 17 -188 19 -78 2 -147 0 -153 -4z m251 -84 c83 -11 123 -70 106
-160 -7 -35 -52 -88 -67 -79 -5 3 -9 1 -9 -5 0 -5 -8 -8 -17 -6 -10 1 -28 -2
-40 -6 -14 -5 -23 -5 -23 1 0 6 -9 6 -25 0 -16 -6 -25 -6 -25 1 0 6 -6 6 -17
1 -38 -20 -43 -6 -43 130 l0 130 25 -4 c14 -3 25 -2 25 3 0 4 15 6 33 4 17 -3
52 -7 77 -10z"/>
<path d="M6509 5214 c-11 -5 -17 -13 -13 -17 11 -10 11 -101 1 -114 -5 -7 -6
-13 -1 -13 11 0 11 -130 1 -147 -5 -7 -5 -13 0 -13 10 0 10 -131 0 -147 -5 -7
-5 -13 0 -13 10 0 10 -131 0 -147 -5 -7 -5 -13 0 -13 4 0 8 -24 8 -52 l0 -53
125 0 c155 0 240 10 305 38 54 23 62 28 102 67 30 29 72 115 75 153 1 15 5 27
8 27 9 0 3 164 -8 191 -6 15 -8 29 -6 32 8 7 -41 98 -69 127 -39 43 -121 80
-207 95 -63 11 -300 10 -321 -1z m196 -74 c0 0 25 -3 55 -4 84 -6 104 -11 146
-37 78 -47 106 -109 107 -234 1 -99 -4 -128 -26 -172 -45 -85 -129 -122 -289
-126 l-93 -2 -1 280 c-1 154 2 285 7 290 5 7 94 12 94 5z"/>
<path d="M7299 5222 c-16 -3 -35 -42 -21 -42 4 0 6 -44 4 -97 -1 -54 -2 -105
-2 -113 0 -8 0 -46 0 -85 0 -38 0 -77 0 -85 1 -79 1 -111 -2 -147 -2 -24 -1
-43 2 -43 8 0 4 -86 -5 -100 -5 -9 -4 -11 3 -6 7 4 12 1 12 -7 0 -11 29 -13
153 -11 126 1 167 5 229 24 125 37 204 124 222 245 2 17 5 32 6 35 4 12 0 128
-5 165 -22 145 -136 243 -303 261 -66 7 -268 11 -293 6z m221 -86 c41 -2 86
-6 100 -9 76 -15 146 -84 167 -167 9 -34 9 -177 1 -205 -11 -36 -48 -106 -62
-120 -19 -18 -66 -46 -66 -39 0 4 -6 2 -12 -4 -20 -16 -107 -25 -219 -23 l-46
1 0 283 c0 155 1 285 3 288 2 3 16 4 31 2 15 -1 62 -5 103 -7z"/>
<path d="M7565 4238 c-2 -7 -4 -34 -2 -61 1 -26 -1 -47 -5 -47 -3 0 -4 -10 0
-22 l5 -21 -21 21 c-12 12 -28 22 -34 23 -7 0 -23 2 -35 5 -66 12 -121 -57
-121 -153 0 -100 52 -155 138 -148 19 2 39 10 45 19 13 16 41 23 31 7 -3 -5 0
-14 8 -20 28 -24 37 12 35 147 0 72 2 135 6 141 3 6 3 11 -2 11 -4 0 -8 24 -8
52 0 42 -3 53 -18 56 -9 2 -19 -2 -22 -10z m-31 -168 c12 -11 20 -35 22 -59 1
-22 5 -44 9 -50 3 -6 1 -11 -4 -11 -6 0 -11 -3 -10 -7 3 -23 -16 -50 -42 -62
-67 -30 -117 30 -106 127 9 83 77 115 131 62z"/>
<path d="M7879 4247 c-1 -1 -2 -91 -3 -200 -1 -200 3 -228 34 -204 12 9 15 32
14 97 -1 123 28 166 99 153 39 -8 46 -28 48 -144 1 -57 4 -107 6 -112 2 -4 12
-3 22 3 20 10 35 60 18 60 -7 0 -7 4 0 11 8 8 8 20 3 34 -5 13 -6 26 -3 29 11
11 4 76 -12 110 -27 57 -104 71 -152 28 -13 -11 -24 -17 -24 -14 -1 4 -2 38
-3 76 -1 63 -3 69 -24 72 -12 2 -23 3 -23 1z"/>
<path d="M4573 4035 c0 -157 3 -195 13 -191 7 3 16 1 19 -5 15 -23 22 7 21 86
-1 49 3 90 9 94 5 4 48 7 95 7 l85 -1 1 -85 c0 -96 5 -110 34 -103 19 5 20 14
20 199 l0 194 -24 0 c-30 0 -32 -8 -31 -92 l1 -67 -93 -3 -93 -3 -1 25 c-1 14
-2 50 -3 80 -1 51 -3 55 -27 58 l-26 3 0 -196z"/>
<path d="M4971 4118 c-9 -26 -3 -203 9 -234 18 -47 118 -67 155 -30 17 17 40
22 31 7 -8 -13 18 -31 32 -22 12 7 16 72 13 229 -1 58 -3 62 -24 62 -23 0 -23
-2 -24 -98 0 -76 -4 -104 -18 -125 -9 -15 -21 -24 -26 -21 -5 3 -9 1 -9 -5 0
-5 -15 -8 -32 -6 -50 7 -61 32 -64 148 -1 56 -2 105 -3 108 -3 14 -34 4 -40
-13z"/>
<path d="M5403 4129 c-13 -5 -23 -13 -23 -20 0 -6 -6 -9 -12 -6 -7 2 -12 10
-10 16 1 8 -7 11 -24 9 l-27 -3 -1 -137 c-1 -133 0 -137 22 -147 12 -6 22 -7
23 -3 1 4 2 23 3 42 1 20 5 41 9 47 4 6 4 14 -1 17 -6 4 -7 37 -3 92 1 6 10
21 21 34 35 40 106 28 119 -20 2 -8 5 -58 5 -110 1 -91 2 -95 24 -98 12 -2 22
1 23 7 4 47 1 183 -4 211 -4 20 -17 44 -28 54 -24 20 -82 28 -116 15z"/>
<path d="M5687 4118 c-39 -28 -57 -69 -57 -126 0 -101 48 -156 130 -147 26 3
49 12 60 25 14 16 19 17 23 6 3 -8 3 -17 -1 -21 -7 -7 -8 -12 -11 -40 -2 -32
-96 -57 -136 -36 -23 12 -34 8 -32 -11 5 -28 25 -38 82 -38 61 0 93 15 120 57
19 28 22 46 23 187 l2 156 -26 0 c-14 0 -23 -4 -20 -9 3 -5 -1 -11 -9 -15 -8
-3 -19 2 -23 11 -14 25 -92 25 -125 1z m124 -44 c11 -12 21 -37 22 -58 1 -20
5 -36 9 -36 11 0 -12 -51 -34 -75 -34 -40 -100 -27 -120 23 -23 57 2 155 41
165 33 9 62 2 82 -19z"/>
<path d="M6069 4133 c-50 -8 -97 -68 -102 -133 -6 -64 38 -150 77 -150 8 0 17
-4 20 -9 7 -11 96 -9 114 2 6 5 12 6 12 2 0 -3 9 -1 20 5 11 6 20 18 20 27 0
13 -7 14 -37 9 -80 -15 -95 -15 -123 -1 -34 18 -64 70 -47 82 7 5 58 8 113 8
l102 -1 -2 32 c-7 94 -71 143 -167 127z m79 -42 c14 -1 43 -61 36 -73 -3 -4
-41 -7 -84 -6 -69 1 -80 4 -80 19 0 27 53 66 86 64 16 -2 35 -3 42 -4z"/>
<path d="M6423 4131 c-13 -3 -32 -14 -44 -25 -22 -18 -22 -18 -16 3 5 19 2 22
-21 19 l-27 -3 -1 -136 c-2 -122 0 -137 17 -147 27 -17 31 -3 31 104 0 52 4
94 10 94 5 0 7 4 4 8 -13 21 46 53 86 45 21 -4 25 -1 23 18 -2 24 -24 31 -62
20z"/>
<path d="M6746 4114 c-51 -35 -64 -75 -58 -174 2 -30 51 -90 74 -90 9 0 19 -4
23 -9 4 -8 104 -8 113 -1 2 3 17 7 31 9 10 1 21 37 14 45 -3 2 -17 0 -32 -5
-55 -22 -94 -20 -136 6 -22 13 -37 25 -33 25 4 0 3 11 -2 24 -11 31 -8 32 112
31 108 -2 111 0 95 66 -10 41 -49 88 -75 90 -69 6 -97 3 -126 -17z m134 -39
c11 -10 20 -28 20 -41 0 -23 -3 -23 -85 -23 l-84 0 10 26 c22 58 95 78 139 38z"/>
<path d="M7111 4119 c-29 -17 -35 -17 -32 4 0 4 -10 7 -24 7 l-25 0 0 -147 c0
-80 3 -143 6 -140 4 3 15 2 25 -4 17 -9 18 -4 18 83 -1 105 1 116 22 148 11
17 25 23 53 23 61 0 69 -17 71 -138 1 -80 5 -109 16 -116 26 -16 35 16 33 117
-2 141 -19 173 -93 179 -25 2 -50 -4 -70 -16z"/>
<path d="M8295 4133 c-57 -10 -102 -86 -99 -165 4 -81 55 -127 148 -133 42 -3
105 11 107 23 0 4 2 15 4 24 3 16 -2 16 -45 0 -60 -22 -134 2 -154 50 -8 18
-11 35 -6 38 4 3 56 5 114 4 l105 -1 -6 41 c-12 94 -71 136 -168 119z m94 -58
c11 -11 21 -29 23 -40 3 -18 -3 -20 -79 -23 -46 -2 -83 -1 -83 1 0 2 5 18 11
34 17 51 90 67 128 28z"/>
<path d="M8553 4132 c-12 -8 -16 -271 -4 -290 6 -9 11 -9 24 1 13 9 17 32 19
110 3 94 4 100 31 123 21 18 35 22 57 17 27 -5 30 -3 30 21 0 19 -5 26 -19 26
-30 0 -73 -19 -87 -38 -12 -16 -13 -15 -14 4 0 23 -20 37 -37 26z"/>
<path d="M8831 4133 c-91 -18 -132 -173 -65 -253 38 -45 126 -60 205 -35 20 7
28 55 9 55 -5 0 -10 -4 -10 -8 0 -10 -3 -10 -77 -16 -29 -2 -53 0 -53 5 0 5
-7 9 -16 9 -15 0 -49 64 -40 78 2 4 52 7 111 6 l106 -1 -5 50 c-8 85 -72 127
-165 110z m102 -64 c9 -12 17 -29 17 -39 0 -16 -9 -18 -77 -18 -43 0 -81 2
-85 4 -14 9 7 47 36 65 37 22 84 17 109 -12z"/>
</g>
</svg>
