<?xml version="1.0" encoding="UTF-8" standalone="no"?>
<svg
   xmlns:dc="http://purl.org/dc/elements/1.1/"
   xmlns:cc="http://creativecommons.org/ns#"
   xmlns:rdf="http://www.w3.org/1999/02/22-rdf-syntax-ns#"
   xmlns:svg="http://www.w3.org/2000/svg"
   xmlns="http://www.w3.org/2000/svg"
   xmlns:sodipodi="http://sodipodi.sourceforge.net/DTD/sodipodi-0.dtd"
   xmlns:inkscape="http://www.inkscape.org/namespaces/inkscape"
   version="1.1"
   id="Layer_1"
   inkscape:version="0.92.3 (2405546, 2018-03-11)"
   sodipodi:docname="rddlogo.svg"
   x="0px"
   y="0px"
   width="100%"
   height="100%"
   viewBox="0 0 354.33 246.609"
   enable-background="new 0 0 354.33 246.609"
   xml:space="preserve"
   inkscape:export-filename="C:\Users\rajk\Desktop\rddlogo.png"
   inkscape:export-xdpi="96"
   inkscape:export-ydpi="96"><metadata
   id="metadata3667"><rdf:RDF><cc:Work
       rdf:about=""><dc:format>image/svg+xml</dc:format><dc:type
         rdf:resource="http://purl.org/dc/dcmitype/StillImage" /><dc:title></dc:title></cc:Work></rdf:RDF></metadata><defs
   id="defs3665" />
<sodipodi:namedview
   inkscape:cy="141.47385"
   inkscape:cx="88.582497"
   inkscape:zoom="1.6086699"
   showgrid="false"
   guidetolerance="10"
   gridtolerance="10"
   objecttolerance="10"
   bordercolor="#666666"
   pagecolor="#ffffff"
   borderopacity="1"
   id="namedview4901"
   inkscape:current-layer="Layer_1"
   inkscape:window-maximized="1"
   inkscape:pageopacity="0"
   inkscape:window-width="2560"
   inkscape:pageshadow="2"
   inkscape:window-height="1315"
   inkscape:window-x="-13"
   inkscape:window-y="-13">
	</sodipodi:namedview>
<path
   id="Color2"
   inkscape:label="#path4897"
   inkscape:connector-curvature="0"
   fill="#8DC641"
   d="M132.237,94.739  c0.462-2.566,1.21-4.005,2.437-4.429c0.563,0.029,1.069,0.054,1.724,0.089c5.168,0.263,8.168-2.611,9.649-8.092  c1.512-5.452,1.49-13.48,0.581-23.529c-1.977-21.947-1.598-40.552-1.598-40.552l-2.784-0.143v0.037h-0.009  c0,0-0.025,18.746,0.05,33.295c0.059,10.279,0.146,20.101-1.213,24.515c-0.462,1.476-1.07,2.322-1.895,2.405  c-3.154,0.276-3.215-13.515-2.82-27.625c0.399-14.551,1.512-32.85,1.512-32.85l-3.148-0.16l-0.003,0.032h-0.022  c0,0-0.421,18.173-1.016,32.712c-0.415,10.615-1.005,21.136-2.334,25.685c-0.454,1.515-0.983,2.353-1.602,2.317  c-2.672-0.134-2.125-13.926-1.221-28.156c0.933-14.474,2.398-32.787,2.398-32.787l-3.139-0.16c0,0-0.762,18.315-1.838,32.834  c-1.046,14.076-2.502,27.789-5.611,27.193c-3.287-0.638-1.838-13.519-0.372-27.152c1.563-14.46,3.439-33.098,3.439-33.098  l-2.79-0.145c0,0-1.51,18.549-5.708,40.184c-3.84,19.796-3.361,31.929,6.96,32.456c0.538,0.025,0.932,0.045,1.383,0.068  c2.983,1.333,2.302,9.343,0.367,25.446c1.476,0.188,2.952,0.378,4.465,0.455c1.232,0.064,2.445,0.014,3.665,0  C131.558,105.683,131.533,98.762,132.237,94.739L132.237,94.739z" />
<path
   id="Color1"
   inkscape:label="#path4899"
   inkscape:connector-curvature="0"
   fill="#2075BC"
   d="M237.257,102.646  c-0.561-0.291-1.229-0.692-2.063-1.078c-0.857-0.342-1.844-0.735-2.948-1.176c-1.147-0.32-2.435-0.695-3.868-0.936  c-0.729-0.073-1.486-0.146-2.275-0.224c-0.789-0.065-1.615,0.063-2.47,0.096c-3.405,0.305-7.14,1.805-10.413,4.335  c-3.305,2.507-6.229,5.865-8.955,9.571c-2.726,3.721-5.269,7.816-7.842,12.037c-2.572,4.22-5.172,8.587-8.018,12.817  c-2.836,4.231-5.945,8.354-9.572,11.77c-1.442,1.348-2.98,2.6-4.587,3.681c-0.655-10.498-0.487-15.86,1.853-16.889  c8.962-2.149,15.602-9.953,15.58-26.329c-0.018-2.509-0.193-5.089-0.478-7.68c-1.923-17.686-10.455-35.721-20.702-35.717  c-11.572,0.042-20.939,23.322-20.917,42.887c0.079,16.527,6.791,24.335,15.878,26.365c2.521,1.22,2.508,7.739,1.734,20.623  c-0.194,0.05-0.392,0.112-0.589,0.154c-4.389,1.009-9.446,0.611-13.75-0.403c-4.318-1.152-8.122-3.177-10.978-5.968  c-2.927-2.709-4.931-6.075-6.4-9.34c-2.865-6.641-3.551-12.957-3.828-17.251c-0.123-2.167-0.112-3.87-0.079-5.01  c0.024-0.56,0.042-0.991,0.054-1.278c0.022-0.264,0.031-0.397,0.031-0.397l-7.983-0.496c0,0-0.006,0.193-0.019,0.563  c-0.002,0.351-0.006,0.864-0.009,1.54c0.012,1.325,0.073,3.244,0.305,5.669c0.233,2.426,0.635,5.359,1.396,8.689  c0.756,3.325,1.928,7.052,3.779,10.923c1.896,3.836,4.515,7.899,8.366,11.222c3.764,3.403,8.746,5.804,14.002,6.973  c2.641,0.493,5.346,0.857,8.05,0.823l1.016,0.005l0.51,0.003l0.253,0.002h0.129l0.308-0.02l1.912-0.19  c1.193-0.045,2.758-0.443,4.217-0.785c2.308-0.594,4.446-1.534,6.445-2.692c0.107-0.008,0.216-0.009,0.325-0.019  c-0.005-0.059-0.008-0.112-0.012-0.171c2.82-1.685,5.342-3.795,7.579-6.043c3.892-3.967,6.979-8.443,9.748-12.909  c2.767-4.478,5.217-8.977,7.621-13.271c2.402-4.298,4.745-8.401,7.233-12.08c2.483-3.666,5.13-6.914,8.036-9.293  c2.887-2.401,6.062-3.8,9.031-4.186c0.744-0.05,1.465-0.206,2.17-0.168c0.705,0.043,1.387,0.084,2.043,0.123  c1.301,0.164,2.492,0.47,3.562,0.72c1.05,0.373,1.983,0.706,2.8,0.997c0.803,0.336,1.455,0.698,1.998,0.952  c1.084,0.531,1.662,0.812,1.662,0.812l0.834-1.44C238.96,103.564,238.368,103.242,237.257,102.646L237.257,102.646z" />






<flowRoot
   xml:space="preserve"
   id="flowRoot3729"
   style="font-style:normal;font-weight:normal;font-size:40px;line-height:1.25;font-family:sans-serif;letter-spacing:0px;word-spacing:0px;fill:#000000;fill-opacity:1;stroke:none"><flowRegion
     id="flowRegion3731"><rect
       id="rect3733"
       width="64.028053"
       height="47.243999"
       x="233.73347"
       y="71.308899" /></flowRegion><flowPara
     id="flowPara3735">rdd</flowPara></flowRoot><text
   xml:space="preserve"
   style="font-style:normal;font-weight:normal;font-size:25.33333397px;line-height:1.25;font-family:sans-serif;letter-spacing:0px;word-spacing:0px;fill:#2075bc;fill-opacity:1;stroke:none"
   x="142.62384"
   y="188.17563"
   id="text3739"><tspan
     sodipodi:role="line"
     id="tspan3737"
     x="142.62384"
     y="188.17563">RDD</tspan></text>
<text
   xml:space="preserve"
   style="font-style:normal;font-weight:normal;font-size:40px;line-height:1.25;font-family:sans-serif;letter-spacing:0px;word-spacing:0px;fill:#000000;fill-opacity:1;stroke:none"
   x="113.13696"
   y="204.33806"
   id="text3743"><tspan
     sodipodi:role="line"
     id="tspan3741"
     x="113.13696"
     y="204.33806"
     style="font-size:13.33333302px">Hunger end here</tspan></text>
</svg>