<svg xmlns="http://www.w3.org/2000/svg" style="display: none;"><symbol id="people" viewBox="0 0 350 350"><title>people</title><path d="M175,171.173c38.914,0,70.463-38.318,70.463-85.586C245.463,38.318,235.105,0,175,0s-70.465,38.318-70.465,85.587 C104.535,132.855,136.084,171.173,175,171.173z"/><path d="M41.909,301.853C41.897,298.971,41.885,301.041,41.909,301.853L41.909,301.853z"/><path d="M308.085,304.104C308.123,303.315,308.098,298.63,308.085,304.104L308.085,304.104z"/><path d="M307.935,298.397c-1.305-82.342-12.059-105.805-94.352-120.657c0,0-11.584,14.761-38.584,14.761 s-38.586-14.761-38.586-14.761c-81.395,14.69-92.803,37.805-94.303,117.982c-0.123,6.547-0.18,6.891-0.202,6.131 c0.005,1.424,0.011,4.058,0.011,8.651c0,0,19.592,39.496,133.08,39.496c113.486,0,133.08-39.496,133.08-39.496 c0-2.951,0.002-5.003,0.005-6.399C308.062,304.575,308.018,303.664,307.935,298.397z"/></symbol><symbol id="book-6" viewBox="0 0 508.52 508.52"><title>book-6</title><path style="fill:#010002;" d="M461.513,0H111.906C68.046,0,32.545,35.247,31.91,78.948l-0.127-0.159v349.607 c0,44.241,35.882,80.124,80.124,80.124h270.151c17.544,0,31.115-14.239,31.115-31.782V143.021c0-8.772-6.452-15.891-15.224-15.891 H111.906c-26.666,0-48.341-20.373-48.341-47.006c0-26.666,21.676-48.341,48.341-48.341h333.049v365.499 c0,8.74,7.787,15.891,16.559,15.891s15.224-7.151,15.224-15.891V15.891C476.737,7.119,470.285,0,461.513,0z M111.906,158.912 h269.515l0.667,317.825H111.938c-26.697,0-48.373-21.676-48.373-48.341V143.371C76.914,153.16,93.599,158.912,111.906,158.912z"/></symbol><symbol id="stars" viewBox="0 0 406.125 406.125"><title>stars</title><path style="fill:#010002;" d="M260.133,155.967c-4.487,0-9.25-3.463-10.64-7.73L205.574,13.075c-1.39-4.268-3.633-4.268-5.023,0 L156.64,148.237c-1.39,4.268-6.153,7.73-10.64,7.73H3.88c-4.487,0-5.186,2.138-1.553,4.78l114.971,83.521 c3.633,2.642,5.454,8.242,4.064,12.51L77.452,391.932c-1.39,4.268,0.431,5.592,4.064,2.951l114.971-83.521 c3.633-2.642,9.519-2.642,13.152,0l114.971,83.529c3.633,2.642,5.454,1.317,4.064-2.951l-43.911-135.154 c-1.39-4.268,0.431-9.868,4.064-12.51l114.971-83.521c3.633-2.642,2.934-4.78-1.553-4.78H260.133V155.967z"/></symbol><symbol id="book-5" viewBox="0 0 512 512"><title>book-5</title><path d="M128,64v448l160-160l160,160V64H128z M384,0H64v448l32-32V32h288V0z"/></symbol><symbol id="school" viewBox="0 0 475.452 475.451"><title>school</title><path d="M468.083,118.385c-3.99-5.33-9.61-9.419-16.854-12.275c0.387,6.665-0.086,12.09-1.42,16.281l-85.65,281.789 c-1.526,4.948-4.859,8.897-9.992,11.848c-5.141,2.953-10.469,4.428-15.989,4.428H74.66c-22.84,0-36.542-6.652-41.112-19.985 c-1.903-5.14-1.807-9.229,0.288-12.275c2.092-2.857,5.708-4.288,10.85-4.288h248.102c17.702,0,29.93-3.285,36.688-9.852 c6.763-6.567,13.565-21.177,20.413-43.824l78.228-258.669c4.186-14.084,2.474-26.457-5.141-37.113s-18.462-15.987-32.548-15.987 H173.163c-2.474,0-7.329,0.854-14.562,2.568l0.284-0.859c-5.33-1.14-9.851-1.662-13.562-1.571 c-3.71,0.099-7.137,1.192-10.277,3.289c-3.14,2.094-5.664,4.328-7.566,6.706c-1.903,2.38-3.761,5.426-5.568,9.136 c-1.805,3.715-3.33,7.142-4.567,10.282c-1.237,3.14-2.666,6.473-4.281,9.998c-1.62,3.521-3.186,6.423-4.71,8.706 c-1.143,1.523-2.758,3.521-4.854,5.996c-2.091,2.474-3.805,4.664-5.137,6.567c-1.331,1.903-2.19,3.616-2.568,5.14 c-0.378,1.711-0.19,4.233,0.571,7.566c0.76,3.328,1.047,5.753,0.854,7.277c-0.76,7.232-3.378,16.414-7.849,27.552 c-4.471,11.136-8.52,19.18-12.135,24.126c-0.761,0.95-2.853,3.092-6.28,6.424c-3.427,3.33-5.52,6.23-6.279,8.704 c-0.762,0.951-0.81,3.617-0.144,7.994c0.666,4.38,0.907,7.423,0.715,9.136c-0.765,6.473-3.14,15.037-7.139,25.697 c-3.999,10.657-7.994,19.414-11.993,26.265c-0.569,1.141-2.185,3.328-4.853,6.567c-2.662,3.237-4.283,5.902-4.853,7.99 c-0.38,1.523-0.33,4.188,0.144,7.994c0.473,3.806,0.426,6.66-0.144,8.562c-1.521,7.228-4.377,15.94-8.565,26.125 c-4.187,10.178-8.47,18.896-12.851,26.121c-1.138,1.906-2.712,4.145-4.708,6.711c-1.999,2.566-3.568,4.805-4.711,6.707 c-1.141,1.903-1.903,3.901-2.284,5.996c-0.19,1.143,0.098,2.998,0.859,5.571c0.76,2.566,1.047,4.612,0.854,6.14 c-0.192,2.662-0.57,6.187-1.141,10.567c-0.572,4.373-0.859,6.939-0.859,7.699c-4.187,11.424-3.999,23.511,0.572,36.269 c5.33,14.838,14.797,27.36,28.406,37.541c13.61,10.185,27.74,15.27,42.398,15.27h263.521c12.367,0,24.026-4.141,34.971-12.416 c10.944-8.281,18.227-18.507,21.837-30.696l78.511-258.662C477.412,141.51,475.701,129.234,468.083,118.385z M164.31,118.956 l5.997-18.274c0.76-2.474,2.329-4.615,4.709-6.423c2.38-1.805,4.808-2.712,7.282-2.712h173.589c2.663,0,4.565,0.903,5.708,2.712 c1.14,1.809,1.335,3.949,0.575,6.423l-6.002,18.274c-0.764,2.475-2.327,4.611-4.713,6.424c-2.382,1.805-4.805,2.708-7.278,2.708 H170.593c-2.666,0-4.568-0.9-5.711-2.708C163.74,123.567,163.55,121.431,164.31,118.956z M140.615,192.045l5.996-18.271 c0.76-2.474,2.331-4.615,4.709-6.423c2.38-1.809,4.805-2.712,7.282-2.712h173.583c2.666,0,4.572,0.9,5.712,2.712 c1.14,1.809,1.331,3.949,0.568,6.423l-5.996,18.271c-0.759,2.474-2.33,4.617-4.708,6.423c-2.383,1.809-4.805,2.712-7.283,2.712 H146.895c-2.664,0-4.567-0.9-5.708-2.712C140.043,196.662,139.854,194.519,140.615,192.045z"/></symbol><symbol id="shopping-cart-black-shape" viewBox="0 0 475.084 475.085"><title>shopping-cart-black-shape</title><path d="M365.446,401.998c0,10.092,3.579,18.702,10.711,25.834c7.132,7.139,15.749,10.711,25.845,10.711 c10.081,0,18.698-3.572,25.83-10.711c7.139-7.132,10.711-15.742,10.711-25.834s-3.568-18.702-10.711-25.841 c-7.132-7.132-15.749-10.704-25.83-10.704c-10.096,0-18.713,3.572-25.845,10.704C369.025,383.296,365.446,391.906,365.446,401.998 z"/><path d="M469.658,78.51c-3.618-3.617-7.898-5.426-12.848-5.426H113.918c-0.193-1.331-0.621-3.756-1.287-7.277 c-0.666-3.523-1.188-6.329-1.569-8.425c-0.383-2.087-1.093-4.611-2.142-7.561c-1.047-2.952-2.284-5.286-3.711-6.995 c-1.425-1.718-3.328-3.189-5.708-4.43c-2.378-1.233-5.092-1.853-8.136-1.853H18.276c-4.952,0-9.234,1.812-12.85,5.424 C1.809,45.583,0,49.868,0,54.816s1.809,9.231,5.426,12.847c3.619,3.617,7.902,5.424,12.85,5.424h58.237l50.532,234.976 c-0.378,0.76-2.329,4.373-5.852,10.848c-3.521,6.475-6.328,12.135-8.42,16.988c-2.093,4.859-3.14,8.616-3.14,11.279 c0,4.948,1.809,9.232,5.424,12.854c3.621,3.606,7.902,5.421,12.851,5.421h18.272h255.815h18.261c4.948,0,9.232-1.814,12.847-5.421 c3.62-3.621,5.427-7.905,5.427-12.854c0-4.949-1.807-9.233-5.427-12.847c-3.614-3.614-7.898-5.428-12.847-5.428h-262.66 c4.57-9.138,6.854-15.222,6.854-18.268c0-1.909-0.238-4.004-0.715-6.283s-1.047-4.805-1.713-7.569 c-0.667-2.752-1.093-4.799-1.283-6.133l298.077-34.831c4.753-0.575,8.658-2.614,11.703-6.14c3.046-3.518,4.565-7.562,4.565-12.133 V91.363C475.082,86.415,473.278,82.132,469.658,78.51z"/><path d="M109.632,401.998c0,10.092,3.567,18.702,10.706,25.834c7.141,7.139,15.75,10.711,25.841,10.711 c10.085,0,18.699-3.572,25.835-10.711c7.139-7.132,10.71-15.742,10.71-25.834s-3.568-18.702-10.71-25.841 c-7.137-7.132-15.75-10.704-25.835-10.704c-10.09,0-18.704,3.572-25.841,10.704C113.203,383.296,109.632,391.906,109.632,401.998z "/></symbol><symbol id="shopping-cart-of-checkered-design" viewBox="0 0 446.843 446.843"><title>shopping-cart-of-checkered-design</title><path d="M444.09,93.103c-2.698-3.699-7.006-5.888-11.584-5.888H109.92c-0.625,0-1.249,0.038-1.85,0.119l-13.276-38.27 c-1.376-3.958-4.406-7.113-8.3-8.646L19.586,14.134c-7.374-2.887-15.695,0.735-18.591,8.1c-2.891,7.369,0.73,15.695,8.1,18.591 l60.768,23.872l74.381,214.399c-3.283,1.144-6.065,3.663-7.332,7.187l-21.506,59.739c-1.318,3.663-0.775,7.733,1.468,10.916 c2.24,3.183,5.883,5.078,9.773,5.078h11.044c-6.844,7.616-11.044,17.646-11.044,28.675c0,23.718,19.298,43.012,43.012,43.012 s43.012-19.294,43.012-43.012c0-11.029-4.2-21.059-11.044-28.675h93.776c-6.847,7.616-11.048,17.646-11.048,28.675 c0,23.718,19.294,43.012,43.013,43.012c23.718,0,43.012-19.294,43.012-43.012c0-11.029-4.2-21.059-11.043-28.675h13.433 c6.599,0,11.947-5.349,11.947-11.948c0-6.599-5.349-11.947-11.947-11.947H143.647l13.319-36.996 c1.72,0.724,3.578,1.152,5.523,1.152h210.278c6.234,0,11.751-4.027,13.65-9.959l59.739-186.387 C447.557,101.567,446.788,96.802,444.09,93.103z M169.659,409.807c-10.543,0-19.116-8.573-19.116-19.116 s8.573-19.117,19.116-19.117s19.116,8.574,19.116,19.117S180.202,409.807,169.659,409.807z M327.367,409.807 c-10.543,0-19.117-8.573-19.117-19.116s8.574-19.117,19.117-19.117c10.542,0,19.116,8.574,19.116,19.117 S337.909,409.807,327.367,409.807z M402.52,148.149h-73.161V115.89h83.499L402.52,148.149z M381.453,213.861h-52.094v-37.038 h63.967L381.453,213.861z M234.571,213.861v-37.038h66.113v37.038H234.571z M300.684,242.538v31.064h-66.113v-31.064H300.684z M139.115,176.823h66.784v37.038h-53.933L139.115,176.823z M234.571,148.149V115.89h66.113v32.259H234.571z M205.898,115.89v32.259 h-76.734l-11.191-32.259H205.898z M161.916,242.538h43.982v31.064h-33.206L161.916,242.538z M329.359,273.603v-31.064h42.909 l-9.955,31.064H329.359z"/></symbol><symbol id="star-1" viewBox="0 0 382.402 382.402"><title>star-1</title><path d="M381.918,147.437c-1.323-4.074-5.122-6.831-9.401-6.831h-131.33l-40.582-124.9c-1.322-4.072-5.12-6.831-9.402-6.831 s-8.08,2.759-9.403,6.831l-40.581,124.9H9.888c-4.282,0-8.081,2.756-9.404,6.831c-1.322,4.074,0.126,8.535,3.591,11.053 l106.245,77.193l-40.582,124.9c-1.323,4.074,0.125,8.535,3.592,11.054c3.466,2.521,8.157,2.521,11.623,0l106.249-77.192 l106.249,77.192c1.731,1.262,3.773,1.888,5.811,1.888c2.038,0,4.079-0.626,5.812-1.888c3.466-2.519,4.913-6.979,3.591-11.054 l-40.58-124.9l106.242-77.193C381.791,155.972,383.241,151.511,381.918,147.437z M254.647,223.913 c-3.465,2.519-4.913,6.979-3.591,11.054l33.402,102.791l-87.446-63.527c-1.732-1.26-3.774-1.887-5.812-1.887 s-4.079,0.627-5.812,1.887l-87.447,63.527l33.403-102.791c1.323-4.074-0.126-8.535-3.592-11.054l-87.441-63.536H148.4 c4.28,0,8.079-2.756,9.402-6.831L191.201,50.75l33.397,102.796c1.322,4.074,5.121,6.831,9.403,6.831h108.087L254.647,223.913z"/></symbol><symbol id="next" viewBox="0 0 129 129"><title>next</title><path d="m40.4,121.3c-0.8,0.8-1.8,1.2-2.9,1.2s-2.1-0.4-2.9-1.2c-1.6-1.6-1.6-4.2 0-5.8l51-51-51-51c-1.6-1.6-1.6-4.2 0-5.8 1.6-1.6 4.2-1.6 5.8,0l53.9,53.9c1.6,1.6 1.6,4.2 0,5.8l-53.9,53.9z"/></symbol><symbol id="textbook" viewBox="0 0 96.737 96.737"><title>textbook</title><path style="fill:#030104;" d="M81.612,24.082L36.618,0.89c-6.162-3.247-18.314,3.026-21.805,8.546 c-1.559,2.466-1.443,4.249-1.443,5.256l0.555,52.373c0.037,1.111,1.438,2.612,2.637,3.348c2.496,1.531,40.297,25.131,41.369,25.799 c0.576,0.358,1.256,0.525,1.928,0.525c0.572,0,1.146-0.127,1.666-0.385c1.136-0.558,1.843-1.642,1.843-2.82V38.523 c0-1.145-0.668-2.203-1.756-2.775l-40.896-22.83c0.463-0.899,2.283-2.801,5.627-4.552c3.523-1.845,6.162-1.148,6.768-0.914 c0,0,39.248,21.004,40.449,21.629c1.195,0.624,1.219,0.718,1.219,1.786c0,1.067,0,52.2,0,52.2c0,2.604,2.645,3.67,4.584,3.67 c1.938,0,4.006-1.9,4.006-3.67V26.858C83.368,25.713,82.696,24.654,81.612,24.082z"/></symbol><symbol id="study" viewBox="0 0 496 496"><title>study</title><path d="M400,0H96c-4.418,0-8,3.582-8,8v480c0,4.418,3.582,8,8,8h304c4.418,0,8-3.582,8-8V8C408,3.582,404.418,0,400,0z M152,480 h-48V16h48V480z M392,480H168V16h224V480z"/><path d="M192,88h176c4.418,0,8-3.582,8-8s-3.582-8-8-8H192c-4.418,0-8,3.582-8,8S187.582,88,192,88z"/><path d="M192,120h176c4.418,0,8-3.582,8-8s-3.582-8-8-8H192c-4.418,0-8,3.582-8,8S187.582,120,192,120z"/><path d="M192,152h176c4.418,0,8-3.582,8-8s-3.582-8-8-8H192c-4.418,0-8,3.582-8,8S187.582,152,192,152z"/></symbol><symbol id="back" viewBox="0 0 477.175 477.175"><title>back</title><path d="M145.188,238.575l215.5-215.5c5.3-5.3,5.3-13.8,0-19.1s-13.8-5.3-19.1,0l-225.1,225.1c-5.3,5.3-5.3,13.8,0,19.1l225.1,225 c2.6,2.6,6.1,4,9.5,4s6.9-1.3,9.5-4c5.3-5.3,5.3-13.8,0-19.1L145.188,238.575z"/></symbol><symbol id="book-4" viewBox="0 0 512.438 512.438"><title>book-4</title><g> <path style="fill:#FF4F19;" d="M424,116.219h-40c-4.418,0-8,3.582-8,8v216h56v-216C432,119.801,428.418,116.219,424,116.219z"/> </g><g> <path style="fill:#E3001E;" d="M404,116.219h-20c-4.418,0-8,3.582-8,8v216h28V116.219z"/> </g><g> <path style="fill:#E3001E;" d="M168.219,84.219H120c-4.418,0-8,3.582-8,8v248h64.219v-248 C176.219,87.801,172.637,84.219,168.219,84.219z"/> </g><g> <path style="fill:#FF4F19;" d="M168.219,84.219H144v256h32.219v-248C176.219,87.801,172.637,84.219,168.219,84.219z"/> </g><g> <g> <path style="fill:#868491;" d="M80,452.219c-2.977,0-5.781-1.668-7.156-4.422l-40-80c-1.977-3.953-0.375-8.758,3.578-10.734 c3.945-1.969,8.758-0.375,10.734,3.578L72,410.332v-46.113c0-4.418,3.578-8,8-8s8,3.582,8,8v80c0,3.711-2.555,6.934-6.164,7.785 C81.227,452.149,80.609,452.219,80,452.219z"/> </g> </g><g> <g> <path style="fill:#868491;" d="M432.219,452.219c-0.609,0-1.227-0.07-1.836-0.215c-3.609-0.852-6.164-4.074-6.164-7.785v-80 c0-4.418,3.578-8,8-8s8,3.582,8,8v46.113l24.844-49.691c1.984-3.953,6.781-5.547,10.734-3.578 c3.953,1.977,5.555,6.781,3.578,10.734l-40,80C438,450.551,435.195,452.219,432.219,452.219z"/> </g> </g><g> <path style="fill:#5D647F;" d="M248,84.219h-16c-4.418,0-8,3.582-8,8v248h32v-248C256,87.801,252.418,84.219,248,84.219z"/> </g><g> <path style="fill:#4BB9EC;" d="M368,84.219h-16c-4.418,0-8,3.582-8,8v248h32v-248C376,87.801,372.418,84.219,368,84.219z"/> </g><g> <path style="fill:#FF9100;" d="M104,108.219H88c-4.418,0-8,3.582-8,8v223.125c0,0.483,0.392,0.875,0.875,0.875H112v-224 C112,111.801,108.418,108.219,104,108.219z"/> </g><g> <path style="fill:#00C37A;" d="M72,132.219H48c-4.418,0-8,3.582-8,8v200h40v-200C80,135.801,76.418,132.219,72,132.219z"/> </g><g> <path style="fill:#5D647F;" d="M464,100.219h-24c-4.418,0-8,3.582-8,8v232h40v-232C472,103.801,468.418,100.219,464,100.219z"/> </g><g> <path style="fill:#FF9100;" d="M336,60.219h-40c-4.418,0-8,3.582-8,8v272h56v-272C344,63.801,340.418,60.219,336,60.219z"/> </g><g> <path style="fill:#00C37A;" d="M280,116.219h-16c-4.418,0-8,3.582-8,8v216h32v-216C288,119.801,284.418,116.219,280,116.219z"/> </g><g> <path style="fill:#4BB9EC;" d="M216,100.219h-32c-4.418,0-8,3.582-8,8v232h48v-232C224,103.801,220.418,100.219,216,100.219z"/> </g><g> <path style="fill:#E6BE8A;" d="M504.438,372.219H8c-4.418,0-8-3.582-8-8v-16c0-4.418,3.582-8,8-8h496.438c4.418,0,8,3.582,8,8v16 C512.438,368.637,508.856,372.219,504.438,372.219z"/> </g><g> <rect x="112" y="108.219" style="fill:#5D647F;" width="32" height="16"/> </g><g> <rect x="144" y="108.219" style="fill:#868491;" width="32" height="16"/> </g><g> <rect x="112" y="300.219" style="fill:#5D647F;" width="32" height="16"/> </g><g> <rect x="144" y="300.219" style="fill:#868491;" width="32" height="16"/> </g><g> <g> <rect x="272.219" y="140.219" style="fill:#00A077;" width="16" height="16"/> </g> </g><g> <g> <rect x="272.219" y="292.219" style="fill:#00A077;" width="16" height="16"/> </g> </g><g> <g> <rect x="376" y="140.219" style="fill:#FF9100;" width="28" height="16"/> </g> </g><g> <g> <rect x="376" y="292.219" style="fill:#FF9100;" width="28" height="16"/> </g> </g><g> <g> <rect x="404" y="140.219" style="fill:#FFCD00;" width="28" height="16"/> </g> </g><g> <g> <rect x="404" y="292.219" style="fill:#FFCD00;" width="28" height="16"/> </g> </g><g> <path style="fill:#009BCA;" d="M176,108.219v232h24v-240h-16C179.582,100.219,176,103.801,176,108.219z"/> </g><g> <path style="fill:#FF4F19;" d="M80,340.219h16v-232h-8c-4.418,0-8,3.582-8,8V340.219z"/> </g><g> <path style="fill:#00A077;" d="M40,340.219h20v-208H46.998c-3.865,0-6.998,3.133-6.998,6.998V340.219z"/> </g><g> <path style="fill:#5C546A;" d="M224,340.219h16v-256h-8c-4.418,0-8,3.582-8,8V340.219z"/> </g><g> <path style="fill:#00A077;" d="M256,340.219h16v-224h-8c-4.418,0-8,3.582-8,8V340.219z"/> </g><g> <g> <rect x="256" y="140.219" style="fill:#5D647F;" width="16" height="16"/> </g> </g><g> <g> <rect x="256" y="292.219" style="fill:#5D647F;" width="16" height="16"/> </g> </g><g> <path style="fill:#FF4F19;" d="M288,340.219h28v-280h-20c-4.418,0-8,3.582-8,8V340.219z"/> </g><g> <path style="fill:#009BCA;" d="M360,84.219h-8c-4.418,0-8,3.582-8,8v248h16V84.219z"/> </g><g> <path style="fill:#5C546A;" d="M452.22,100.219H440c-4.418,0-8,3.582-8,8v232h20.22V100.219z"/> </g><g> <path style="fill:#C9A07C;" d="M0,356.219v8c0,4.418,3.582,8,8,8h496.438c4.418,0,8-3.582,8-8v-8H0z"/> </g></symbol><symbol id="book-3" viewBox="0 0 512.002 512.002"><title>book-3</title><path style="fill:#2D404E;" d="M255.173,488c-25.777,0-47.042-13.8-54.262-33.333c-25.545-10.69-61.154-20.844-104.261-20.844 c-18.784,0-37.814,1.989-56.562,5.912L0,448.124V69.001l33.273-43.415C34.589,25.384,179.267,72.354,256,122.977 c76.732-50.623,221.41-97.592,222.727-97.391l33.143,43.138l0.131,379.4l-40.088-8.389c-18.746-3.922-37.775-5.912-56.561-5.912 c-45.254,0-82.409,11.582-106.252,21.717C301.578,474.611,280.564,488,255.173,488z"/><path style="fill:#253744;" d="M33.275,25.587l-11.611,15.15v382.347c0,0,27.983-17.191,96.748-12.755 s107.122,28.375,107.122,28.375s-2.589,27.635,30.468,27.635V112.257L33.275,25.587z"/><path style="fill:#253744;" d="M478.728,25.587l11.611,15.15v382.347c0,0-27.983-17.191-96.748-12.755 s-107.122,28.375-107.122,28.375s2.589,27.635-30.468,27.635V112.257L478.728,25.587z"/><path style="fill:#D1D5D5;" d="M256.002,413.119v41.608c13.049,0,23.628-6.652,23.628-14.86v-11.888 C279.63,419.771,269.05,413.119,256.002,413.119z"/><path style="opacity:0.7;fill:#C6CBCB;enable-background:new ;" d="M232.374,427.979v11.888c0,8.208,10.575,14.86,23.628,14.86 v-41.608C242.949,413.119,232.374,419.771,232.374,427.979z"/><path style="fill:#C6CBCB;" d="M256.002,90.163v356.146c0,0-91.804-66.539-222.727-39.141V25.587 C33.275,25.587,148.479,7.975,256.002,90.163z"/><path style="fill:#E2E5E7;" d="M256.002,90.163v356.146c0,0,91.805-66.539,222.727-39.141V25.587 C478.728,25.587,363.524,7.975,256.002,90.163z"/><path style="opacity:0.7;fill:#E2E5E7;enable-background:new ;" d="M43.455,41.075V382.68c0,0,65.438-9.982,125.329,12.2 c0,0-31.055-28.837-92.056-42.146L63.235,41.075H43.455L43.455,41.075z"/><polygon style="opacity:0.6;fill:#253744;enable-background:new ;" points="0.002,69.001 0.002,448.125 33.275,407.168 33.275,25.587 "/><polygon style="opacity:0.6;fill:#253744;enable-background:new ;" points="512.002,69.001 512.002,448.125 478.728,407.168 478.728,25.587 "/></symbol><symbol id="book-2" viewBox="0 0 512 512"><title>book-2</title><path style="fill:#FFCA4F;" d="M256.001,512C397,512,512,396.998,512,255.999S397,0,256.001,0C115,0,0,115,0,255.999 S115,512,256.001,512z"/><path style="fill:#20D0C2;" d="M175.234,145.67h223.495l50.716,223.867l-18.573,0.094l-0.443,79.039l19.143,0.1l-0.123,13.207 H147.331c-28.593-2.219-26.044-53.042-27.573-66.648l25.454-227.568c0.1-10.114,10.62-22.088,30.025-22.088L175.234,145.67z"/><path style="fill:#1A91A1;" d="M175.234,145.67h21.406l-19.484,316.304h-29.831c-35.038-3.971-36.373-59.699-24.997-89.649 l22.878-204.57c0.1-10.112,10.623-22.088,30.025-22.088L175.234,145.67z"/><path style="fill:#FFFFFF;" d="M151.218,369.511H443.65c-13.27,27.111-12.926,53.847,0,80.229H151.218 C119.847,449.741,119.852,369.511,151.218,369.511z"/><path style="fill:#ECF0F1;" d="M129.953,391.568h305.87c-0.178,0.803-0.344,1.605-0.496,2.408H129.369 C129.55,393.163,129.741,392.358,129.953,391.568z M434.394,400.009L434.394,400.009c-0.097,0.803-0.178,1.605-0.249,2.408H128.033 c0.073-0.808,0.17-1.611,0.273-2.408H434.394z M433.837,408.45L433.837,408.45c-0.01,0.803-0.01,1.605,0,2.408H127.708 c-0.013-0.803-0.013-1.605,0-2.408H433.837z M434.15,416.885L434.15,416.885c0.071,0.805,0.155,1.608,0.249,2.411H128.314 c-0.105-0.8-0.197-1.603-0.275-2.411H434.15z M435.333,425.326L435.333,425.326c0.155,0.803,0.32,1.605,0.498,2.408H129.969 c-0.212-0.792-0.407-1.595-0.59-2.408h305.956H435.333z M437.384,433.767L437.384,433.767c0.236,0.803,0.485,1.605,0.745,2.408 h-305.07c-0.375-0.779-0.734-1.584-1.07-2.408h305.392H437.384z M440.306,442.207L440.306,442.207c0.32,0.8,0.65,1.605,0.994,2.408 H138.956c-0.766-0.737-1.49-1.542-2.177-2.408h303.525H440.306z"/><path style="fill:#FF5B61;" d="M240.174,410.619h45.698v101.376l-23.038-33.071l-22.657,33.071V410.619H240.174z"/><path style="fill:#FFFFFF;" d="M98.952,287.522L408.756,176.7c34.702-2.877,45.094,67.718,22.335,74.38L128.409,364.682 c-17.191,6.476-33.999-21.165-35.497-48.266c-0.797-14.395,3.119-13.96,19.515-20.383l-13.474-8.509V287.522z"/><path style="fill:#ECF0F1;" d="M440.83,240.523c-1.973,5.34-5.191,9.225-9.739,10.558L128.409,364.682 c-5.264,1.983-10.492,0.763-15.255-2.657c8.588,0.86,13.283-0.281,21.453-7.987L440.83,240.523z"/><path style="fill:#FFBA1B;" d="M302.271,214.823c23.009,3.315,39.445,57.944,27.948,74.118l-41.831,15.699 c7.588-25.621-8.947-68.321-31.93-73.415L302.271,214.823z"/><path style="fill:#F5A209;" d="M376.381,325.374l-46.162-36.433l-41.831,15.699l34.93,40.596l16.137-24.118L376.381,325.374z"/><g> <path style="fill:#ECF0F1;" d="M110.404,296.875l2.022-0.845c12.651,2.563,34.836,47.898,10.526,57.963 c-17.293,7.156-25.346-30.351-24.716-42.786c7.413-5.312,15.415,17.089,12.853,17.598l-5.133,1.015c0,0,0.157,9.805,5.133,10.481 l19.856-6.426c0,0-1.613-28.905-20.538-37H110.404z"/> <path style="fill:#ECF0F1;" d="M181.815,386.332h235.529h13.43h6.366c1.584-5.571,3.74-11.158,6.484-16.766 c0.008-0.018,0.016-0.037,0.026-0.055h-20.905H182.849h-31.636c-29.026,0-31.195,68.707-6.5,78.957 c-8.362-23.662-1.681-62.136,20.042-62.136h17.057H181.815z"/> </g><path style="fill:#666666;" d="M279.228,136.173l2.515,43.946c-14.29,24.221-59.904,42.199-104.815,41.742 c-42.799-0.433-85.022-18.19-96.631-40.554l-0.236-43.056l95.624,26.398l103.543-28.473V136.173z"/><path style="fill:#807D7D;" d="M21.068,120.883l154.615-52.234L330.3,120.883l-154.617,52.232L21.068,120.883z"/><path style="fill:#FF5B61;" d="M76.027,227.812l-7.079,45.331c-0.113,0.737,2.376,1.739,3.565,0.262 c1.561,1.87,3.63,1.104,4.249-0.189c0.784,1.283,2.631,1.991,3.971,0.076c1.188,1.477,3.843,0.449,3.649-0.79l-7.035-44.732 c-0.178-0.666-1.225-0.553-1.317,0.039L76.027,227.812z"/><g> <path style="fill:#FFFFFF;" d="M176.737,107.653c0.934-0.278,1.92,0.252,2.198,1.188c0.278,0.934-0.252,1.92-1.188,2.198 l-99.443,29.899v86.716c0,0.976-0.792,1.768-1.768,1.768s-1.768-0.792-1.768-1.768v-88.03l0,0c0-0.761,0.496-1.464,1.262-1.692 l100.704-30.28H176.737z"/> <path style="fill:#FFFFFF;" d="M76.667,233.577c3.864,0,7.017-3.153,7.017-7.019s-3.153-7.016-7.017-7.016 c-3.866,0-7.016,3.153-7.016,7.016C69.651,230.425,72.804,233.577,76.667,233.577z"/> </g><path style="fill:#ECF0F1;" d="M82.357,224.772c0,2.938-1.868,5.435-4.477,6.376c-0.719,0.257-1.49,0.399-2.298,0.399 c-0.045,0-0.089,0-0.131,0c-2.311-0.045-4.338-1.246-5.527-3.045c0.706,2.455,2.717,4.359,5.235,4.913 c0.485,0.105,0.991,0.163,1.511,0.163c0.535,0,1.06-0.06,1.563-0.176c3.124-0.711,5.453-3.502,5.453-6.843 c0-2.004-0.839-3.809-2.182-5.089c0.543,0.976,0.855,2.101,0.855,3.3L82.357,224.772z"/></symbol><symbol id="audiobook" viewBox="0 0 509.287 509.287"><title>audiobook</title><circle style="fill:#F1F3F7;" cx="254.644" cy="254.644" r="254.644"/><path style="fill:#4B5AA7;" d="M128.17,21.362c-23.735,0-43.062,19.327-43.062,43.062v380.44c0-23.735,19.327-43.062,43.062-43.062 h11.528V21.362H128.17z"/><rect x="139.359" y="21.362" style="fill:#6EB1E1;" width="284.821" height="380.44"/><path style="fill:#0090FF;" d="M97.992,444.864c0-16.615,13.563-30.177,30.177-30.177h296.35v-12.885H128.17 c-23.735,0-43.062,19.327-43.062,43.062s19.327,43.062,43.062,43.062h296.35v-12.885H128.17 C111.555,474.702,97.992,461.478,97.992,444.864z"/><g> <path style="fill:#FCFCFD;" d="M128.17,414.686c-16.615,0-30.177,13.563-30.177,30.177c0,16.615,13.224,30.177,30.177,30.177 c98.67,0,197.34,0,296.35,0c-11.868-18.31-11.868-41.706,0-60.016C325.51,414.686,226.84,414.686,128.17,414.686z"/> <path style="fill:#FCFCFD;" d="M365.521,95.958L226.84,131.56v137.325c-7.121-2.374-15.936-2.713-24.752-0.678 c-19.666,4.408-32.89,18.988-29.838,32.212c3.052,13.224,21.362,20.344,40.689,15.936c17.971-4.069,30.517-16.276,30.177-28.821 l0,0v-120.71l105.791-27.126v78.665c-7.121-2.373-15.936-2.713-24.752-0.678c-19.666,4.408-32.89,18.988-29.838,32.212 c3.052,13.224,21.362,20.344,40.689,15.936c17.971-4.069,30.517-16.276,30.177-28.821l0,0L365.521,95.958z"/> </g></symbol><symbol id="book-1" viewBox="0 0 412.72 412.72"><title>book-1</title><path d="M404.72,82.944c-0.027,0-0.054,0-0.08,0h0h-27.12v-9.28c0.146-3.673-2.23-6.974-5.76-8 c-18.828-4.934-38.216-7.408-57.68-7.36c-32,0-75.6,7.2-107.84,40c-32-33.12-75.92-40-107.84-40 c-19.464-0.048-38.852,2.426-57.68,7.36c-3.53,1.026-5.906,4.327-5.76,8v9.2H8c-4.418,0-8,3.582-8,8v255.52c0,4.418,3.582,8,8,8 c1.374-0.004,2.724-0.362,3.92-1.04c0.8-0.4,80.8-44.16,192.48-16h1.2h0.72c0.638,0.077,1.282,0.077,1.92,0 c112-28.4,192,15.28,192.48,16c2.475,1.429,5.525,1.429,8,0c2.46-1.42,3.983-4.039,4-6.88V90.944 C412.72,86.526,409.139,82.944,404.72,82.944z M16,333.664V98.944h19.12v200.64c-0.05,4.418,3.491,8.04,7.909,8.09 c0.432,0.005,0.864-0.025,1.291-0.09c16.55-2.527,33.259-3.864,50-4c23.19-0.402,46.283,3.086,68.32,10.32 C112.875,307.886,62.397,314.688,16,333.664z M94.32,287.664c-14.551,0.033-29.085,0.968-43.52,2.8V79.984 c15.576-3.47,31.482-5.241,47.44-5.28c29.92,0,71.2,6.88,99.84,39.2l0.24,199.28C181.68,302.304,149.2,287.664,94.32,287.664z M214.32,113.904c28.64-32,69.92-39.2,99.84-39.2c15.957,0.047,31.863,1.817,47.44,5.28v210.48 c-14.354-1.849-28.808-2.811-43.28-2.88c-54.56,0-87.12,14.64-104,25.52V113.904z M396.64,333.664 c-46.496-19.028-97.09-25.831-146.96-19.76c22.141-7.26,45.344-10.749,68.64-10.32c16.846,0.094,33.663,1.404,50.32,3.92 c4.368,0.663,8.447-2.341,9.11-6.709c0.065-0.427,0.095-0.859,0.09-1.291V98.944h19.12L396.64,333.664z"/></symbol><symbol id="book" viewBox="0 0 480 480"><title>book</title><linearGradient id="SVGID_1_" gradientUnits="userSpaceOnUse" x1="-26.875" y1="562.0394" x2="-26.875" y2="614.6404" gradientTransform="matrix(8 0 0 -8 455 4941.1294)"> <stop offset="0" style="stop-color:#006DF0"/> <stop offset="1" style="stop-color:#00E7F0"/> </linearGradient><path style="fill:url(#SVGID_1_);" d="M472,88.014h-32v-40c0.016-4.418-3.553-8.013-7.972-8.028c-0.234-0.001-0.467,0.009-0.7,0.028 l-20.872,1.76c-50.615,4.186-100.259,16.291-147.12,35.872L240,87.35l-23.312-9.672c-46.866-19.584-96.516-31.691-147.136-35.88 l-20.88-1.784c-4.403-0.371-8.273,2.897-8.644,7.3c-0.02,0.233-0.029,0.467-0.028,0.7v40H8c-4.418,0-8,3.582-8,8v336 c0,4.418,3.582,8,8,8h464c4.418,0,8-3.582,8-8v-336C480,91.596,476.418,88.014,472,88.014z M269.488,92.43 c45.327-18.938,93.346-30.643,142.304-34.688L424,56.718v319.928l-13.144,1.072c-50.629,4.203-100.293,16.279-147.2,35.792 L248,420.014V101.35L269.488,92.43z M56,56.718l12.208,1.024c48.966,4.046,96.993,15.754,142.328,34.696L232,101.35v318.664 l-14.752-6.16c-46.83-19.62-96.45-31.768-147.048-36L56,376.67L56,56.718z M16,104.014h24v280c-0.015,4.166,3.169,7.646,7.32,8 l21.528,1.84c5.867,0.491,11.733,1.096,17.6,1.816c1.96,0.232,3.904,0.544,5.864,0.8c3.88,0.52,7.76,1.04,11.624,1.656 c2.304,0.368,4.6,0.8,6.896,1.208c3.504,0.616,7.008,1.232,10.496,1.92c2.4,0.48,4.8,1.008,7.2,1.528 c3.368,0.72,6.736,1.456,10.088,2.256c2.4,0.576,4.84,1.192,7.256,1.808c3.304,0.848,6.6,1.712,9.888,2.624 c2.4,0.672,4.8,1.376,7.2,2.08c3.264,0.965,6.52,1.968,9.768,3.008c2.379,0.757,4.752,1.536,7.12,2.336 c3.272,1.096,6.52,2.248,9.768,3.424c2.304,0.8,4.616,1.672,6.904,2.544c0.992,0.376,1.976,0.8,2.96,1.168H16L16,104.014z M464,424.014H280.64c1.096-0.424,2.184-0.872,3.28-1.288c2.4-0.92,4.8-1.792,7.256-2.664c3.136-1.136,6.285-2.237,9.448-3.304 c2.464-0.8,4.944-1.6,7.416-2.4c3.16-1.008,6.336-1.968,9.512-2.912c2.496-0.736,5-1.464,7.504-2.152c3.2-0.896,6.4-1.736,9.68-2.56 c2.48-0.632,4.968-1.264,7.464-1.856c3.328-0.8,6.68-1.52,10.032-2.232c2.4-0.52,4.8-1.056,7.248-1.536 c3.52-0.696,7.056-1.312,10.584-1.928c2.288-0.4,4.568-0.8,6.864-1.2c3.944-0.624,7.896-1.16,11.856-1.688 c1.896-0.248,3.792-0.552,5.696-0.8c5.867-0.709,11.763-1.315,17.688-1.816l20.488-1.664c4.16-0.342,7.358-3.826,7.344-8v-280h24 L464,424.014z"/></symbol><symbol id="star" viewBox="0 0 482.207 482.207"><title>star</title><path d="M482.207,186.973l-159.699-33.705L241.104,11.803l-81.404,141.465L0,186.973l109.388,121.134L92.094,470.404l149.01-66.6 l149.01,66.6l-17.294-162.296L482.207,186.973z M241.104,370.943V71.953l62.09,107.9L425,205.561l-83.433,92.393l13.191,123.788 L241.104,370.943z"/></symbol><symbol id="favorite" viewBox="0 0 455 455"><title>favorite</title><path d="M326.632,10.346c-38.733,0-74.991,17.537-99.132,46.92c-24.141-29.383-60.399-46.92-99.132-46.92 C57.586,10.346,0,67.931,0,138.714c0,55.426,33.049,119.535,98.23,190.546c50.162,54.649,104.729,96.96,120.257,108.626l9.01,6.769 l9.009-6.768c15.53-11.667,70.099-53.979,120.26-108.625C421.95,258.251,455,194.141,455,138.714 C455,67.931,397.414,10.346,326.632,10.346z"/></symbol></svg>