<svg xmlns="http://www.w3.org/2000/svg" style="display: none;"><symbol id="tag-black-shape" viewBox="0 0 432.544 432.544"><title>tag-black-shape</title><path d="M421.985,229.833L217.847,25.981c-7.235-7.238-16.94-13.374-29.121-18.416C176.541,2.522,165.407,0,155.318,0H36.547 C26.648,0,18.083,3.619,10.85,10.848C3.617,18.081,0.002,26.646,0.002,36.545v118.771c0,10.088,2.519,21.219,7.564,33.404 s11.182,21.792,18.417,28.837L230.118,421.98c7.043,7.043,15.602,10.564,25.697,10.564c9.89,0,18.558-3.521,25.98-10.564 l140.186-140.47c7.043-7.046,10.561-15.604,10.561-25.693C432.542,245.919,429.024,237.258,421.985,229.833z M117.202,117.201 c-7.142,7.138-15.752,10.709-25.841,10.709c-10.085,0-18.699-3.571-25.837-10.709c-7.138-7.139-10.706-15.749-10.706-25.837 c0-10.089,3.568-18.702,10.706-25.837c7.139-7.139,15.752-10.71,25.837-10.71c10.089,0,18.702,3.571,25.841,10.71 c7.135,7.135,10.706,15.749,10.706,25.837C127.908,101.452,124.341,110.062,117.202,117.201z"/></symbol><symbol id="user" viewBox="0 0 512 512"><title>user</title><path d="M437.02,330.98c-27.883-27.882-61.071-48.523-97.281-61.018C378.521,243.251,404,198.548,404,148 C404,66.393,337.607,0,256,0S108,66.393,108,148c0,50.548,25.479,95.251,64.262,121.962 c-36.21,12.495-69.398,33.136-97.281,61.018C26.629,379.333,0,443.62,0,512h40c0-119.103,96.897-216,216-216s216,96.897,216,216 h40C512,443.62,485.371,379.333,437.02,330.98z M256,256c-59.551,0-108-48.448-108-108S196.449,40,256,40 c59.551,0,108,48.448,108,108S315.551,256,256,256z"/></symbol><symbol id="shopping-bag" viewBox="0 0 501.715 501.715"><title>shopping-bag</title><path d="M456.087,96.179l-101.053,8.289c-12.37-42.151-44.934-74.287-84.686-82.398C255.426,10.842,238.1,3.378,219.1,0.918V0h-13 v0.74c-64,6.716-114.338,60.153-116.071,125.472l-82.888,6.796l51.292,320.703l296.28,48.004l70.592-35.174l69.268-323.271 L456.087,96.179z M340.759,105.639l-20.519,1.683c-3.606-23.063-12.682-44.049-25.676-61.224 C315.853,58.566,332.505,79.836,340.759,105.639z M264.74,35.225c21.275,17.067,36.557,43.121,41.507,73.245l-148.818,12.207 c9.695-47.204,50.148-83.322,99.417-86.391C259.509,34.474,262.14,34.794,264.74,35.225z M212.326,14.253 c10.692,0.753,20.942,3.384,30.499,7.599c-50.913,8.765-91.174,49.073-99.866,100.011l-38.96,3.196 C106.347,65.832,153.438,17.91,212.326,14.253z M359.117,483.213l-5.656-1.442l95.579-375.235l5.655,1.44L359.117,483.213z"/></symbol><symbol id="food-truck" viewBox="0 0 512 512"><title>food-truck</title><path d="M437,316c-8.291,0-15-6.709-15-15c0-8.291,6.709-15,15-15h73.482c-6.885-33.695-36.482-59.161-72.039-59.854 l-22.566-81.284c-2.825-10.172-7.148-19.563-12.09-28.539C393.882,86.532,340.144,46,283.784,46H75C33.647,46,0,79.647,0,121v165 h377c8.291,0,15,6.709,15,15c0,8.291-6.709,15-15,15H0v45c0,24.814,20.186,45,45,45c0,33.091,26.909,60,60,60s60-26.909,60-60h166 c0,33.091,27.909,60,61,60s60-26.909,60-60h15c24.814,0,45-20.186,45-45v-45H437z M105,436c-16.538,0-30-13.462-30-30 c0-16.538,13.462-30,30-30s30,13.462,30,30C135,422.538,121.538,436,105,436z M210,136h30v15c0,8.276-6.724,15-15,15 s-15-6.724-15-15V136z M150,136h30v15c0,8.276-6.724,15-15,15s-15-6.724-15-15V136z M90,136h30v15c0,8.276-6.724,15-15,15 s-15-6.724-15-15V136z M300,226H90v-32.763c4.715,1.681,9.716,2.763,15,2.763c11.567,0,22.02-4.508,30-11.704 c7.98,7.196,18.433,11.704,30,11.704s22.02-4.508,30-11.704c7.98,7.196,18.433,11.704,30,11.704s22.02-4.508,30-11.704 c7.98,7.196,18.433,11.704,30,11.704c5.284,0,10.285-1.082,15-2.763V226z M300,151c0,8.276-6.724,15-15,15s-15-6.724-15-15v-15h30 V151z M331,226v-90h49.596c2.563,5.383,4.731,11.006,6.365,16.89L407.258,226H331z M392,436c-16.538,0-30-13.462-30-30 c0-16.538,13.462-30,30-30c16.538,0,30,13.462,30,30C422,422.538,408.538,436,392,436z"/></symbol><symbol id="secure-payment" viewBox="0 0 358.051 358.051"><title>secure-payment</title><path d="M226.228,134.937c-2.311-2.31-5.532-3.635-8.838-3.635c-3.353,0-6.49,1.29-8.837,3.635l-43.762,43.761l-15.112-15.114 c-2.36-2.353-5.496-3.649-8.829-3.649c-3.336,0-6.474,1.298-8.837,3.659c-2.361,2.362-3.662,5.502-3.662,8.84 c0,3.341,1.302,6.481,3.661,8.839l23.949,23.951c2.341,2.336,5.477,3.622,8.828,3.622c0.001,0,0.001,0,0.001,0 c3.353,0,6.488-1.287,8.84-3.631l52.6-52.599C231.102,147.744,231.103,139.815,226.228,134.937z"/><path d="M324.957,73.791c-0.198-2.277-1.577-4.283-3.632-5.282L181.869,0.655c-1.795-0.874-3.893-0.874-5.688,0L36.726,68.508 c-2.055,1-3.435,3.005-3.632,5.282c-0.178,2.046-4.177,50.8,11.229,110.347c9.075,35.077,23.049,66.544,41.533,93.527 c23.183,33.841,53.522,60.642,90.177,79.657c0.938,0.487,1.966,0.73,2.993,0.73s2.055-0.243,2.993-0.73 c36.654-19.015,66.995-45.815,90.178-79.657c18.484-26.983,32.458-58.45,41.532-93.527 C329.134,124.59,325.135,75.837,324.957,73.791z M179.025,251.701c-45.588,0-82.676-37.088-82.676-82.676 s37.088-82.676,82.676-82.676s82.676,37.088,82.676,82.676S224.613,251.701,179.025,251.701z"/></symbol><symbol id="credit-card-2" viewBox="0 0 488.636 488.636"><title>credit-card-2</title><path d="M384.936,125.936c7.1,0,9.1-9.6,2.7-12.5l-249.9-110.8c-15.2-6.8-33.1,0-39.9,15.3l-87.5,196.2 c-6.8,15.2,0,33.1,15.3,39.9l50.4,21.8c6.3,2.8,13.5-1.8,13.5-8.7v-83.3c0-31.9,25.9-57.8,57.8-57.8h237.6V125.936z"/><path d="M450.336,153.136h-303.1c-16.9,0-30.6,13.7-30.6,30.6v214.1c0,16.9,13.7,30.6,30.6,30.6h40.7c-1-6-1.5-12.1-1.5-18.3 c0-7,0.7-13.8,1.9-20.5h-32.8v-102.5h286.6v102.4h-32.9c1.2,6.7,1.9,13.5,1.9,20.5c0,6.2-0.5,12.3-1.5,18.3h40.7 c16.9,0,30.6-13.7,30.6-30.6v-214C480.936,166.836,467.236,153.136,450.336,153.136z M442.136,224.036h-286.6v-32.1h286.6V224.036 z"/><path d="M298.836,331.436c-43.4,0-78.6,35.2-78.6,78.6s35.2,78.6,78.6,78.6s78.6-35.2,78.6-78.6S342.236,331.436,298.836,331.436z M321.436,441.036c-3.4,4.2-7.9,7-13.1,8.4c-2.3,0.6-3.3,1.8-3.2,4.2c0.1,2.3,0,4.6,0,7c0,2.1-1.1,3.2-3.1,3.2 c-2.5,0.1-5,0.1-7.5,0c-2.2,0-3.2-1.3-3.2-3.4c0-1.7,0-3.4,0-5.1c0-3.7-0.2-3.9-3.8-4.5c-4.6-0.7-9.1-1.8-13.3-3.8 c-3.3-1.6-3.7-2.4-2.7-5.9c0.7-2.6,1.4-5.2,2.2-7.7c0.9-3,1.7-3.3,4.5-1.9c4.7,2.4,9.6,3.8,14.8,4.4c3.3,0.4,6.6,0.1,9.7-1.3 c5.8-2.5,6.7-9.2,1.8-13.2c-1.7-1.4-3.5-2.4-5.5-3.2c-5.1-2.2-10.4-3.9-15.1-6.8c-7.8-4.6-12.7-11-12.1-20.5 c0.6-10.7,6.7-17.3,16.5-20.9c4-1.5,4.1-1.4,4.1-5.6c0-1.4,0-2.9,0-4.3c0.1-3.2,0.6-3.7,3.8-3.8c1,0,2,0,2.9,0 c6.8,0,6.8,0,6.8,6.8c0,4.8,0,4.8,4.8,5.5c3.6,0.6,7.1,1.6,10.5,3.1c1.9,0.8,2.6,2.1,2,4.1c-0.8,2.9-1.6,5.9-2.6,8.7 c-0.9,2.7-1.8,3.1-4.4,1.9c-5.3-2.6-10.8-3.6-16.6-3.3c-1.5,0.1-3,0.3-4.4,0.9c-5,2.2-5.9,7.8-1.6,11.2c2.2,1.7,4.6,3,7.2,4.1 c4.5,1.8,8.9,3.6,13.2,6C327.236,412.636,330.936,429.536,321.436,441.036z"/></symbol><symbol id="like-2" viewBox="0 0 50 50"><title>like-2</title><path style="fill:#D75A4A;" d="M24.85,10.126c2.018-4.783,6.628-8.125,11.99-8.125c7.223,0,12.425,6.179,13.079,13.543 c0,0,0.353,1.828-0.424,5.119c-1.058,4.482-3.545,8.464-6.898,11.503L24.85,48L7.402,32.165c-3.353-3.038-5.84-7.021-6.898-11.503 c-0.777-3.291-0.424-5.119-0.424-5.119C0.734,8.179,5.936,2,13.159,2C18.522,2,22.832,5.343,24.85,10.126z"/></symbol><symbol id="like-1" viewBox="0 0 51.997 51.997"><title>like-1</title><path d="M51.911,16.242C51.152,7.888,45.239,1.827,37.839,1.827c-4.93,0-9.444,2.653-11.984,6.905 c-2.517-4.307-6.846-6.906-11.697-6.906c-7.399,0-13.313,6.061-14.071,14.415c-0.06,0.369-0.306,2.311,0.442,5.478 c1.078,4.568,3.568,8.723,7.199,12.013l18.115,16.439l18.426-16.438c3.631-3.291,6.121-7.445,7.199-12.014 C52.216,18.553,51.97,16.611,51.911,16.242z"/></symbol><symbol id="like" viewBox="0 0 512.37 512.37"><title>like</title><path d="M475.524,72.933c-33.872-36.293-72.122-56.78-115.583-56.78c-42.308,0-79.083,19.333-103.742,52.277 c-24.591-32.968-61.208-52.277-103.49-52.277c-43.164,0-80.774,20.275-115.429,56.616 c-51.87,54.357-52.062,155.013,14.925,221.999c13.003,13.003,45.393,46.322,91.094,93.615 c21.934,22.7,44.674,46.277,67.387,69.854c7.95,8.252,15.328,15.915,21.947,22.792c6.806,7.073,6.806,7.073,8.317,8.643 c8.393,8.726,22.357,8.726,30.751,0c1.51-1.57,1.51-1.57,8.316-8.643c6.619-6.877,13.997-14.539,21.947-22.792 c22.713-23.577,45.453-47.154,66.715-69.158c46.373-47.99,78.763-81.308,91.766-94.312 C527.176,228.038,526.702,127.752,475.524,72.933z M430.275,264.599c-13.253,13.253-45.689,46.619-91.606,94.137 c-21.952,22.718-44.706,46.31-67.433,69.902c-5.236,5.435-10.224,10.615-14.91,15.482c-4.687-4.868-9.675-10.047-14.911-15.482 c-22.727-23.592-45.482-47.184-66.76-69.205c-46.591-48.215-79.026-81.58-92.279-94.833C31.961,214.185,32.102,140,68.154,102.22 c27.31-28.64,54.69-43.4,84.555-43.4c37.759,0,68.431,22.518,83.608,61.191c7.085,18.053,32.633,18.053,39.718,0 c15.143-38.586,46.063-61.191,83.907-61.191c30.166,0,57.925,14.868,84.393,43.228 C480.097,140.355,480.447,214.426,430.275,264.599z"/></symbol><symbol id="loader" viewBox="0 0 512 512"><title>loader</title><path style="fill:#2D50A7;" d="M116.364,221.091H23.273C10.42,221.091,0,231.511,0,244.364c0,12.853,10.42,23.273,23.273,23.273 h93.091c12.853,0,23.273-10.42,23.273-23.273C139.636,231.511,129.216,221.091,116.364,221.091z"/><path style="fill:#73A1FB;" d="M488.727,221.091h-93.091c-12.853,0-23.273,10.42-23.273,23.273c0,12.853,10.42,23.273,23.273,23.273 h93.091c12.853,0,23.273-10.42,23.273-23.273C512,231.511,501.58,221.091,488.727,221.091z"/><path style="fill:#355EC9;" d="M140.805,326.645L74.98,392.471c-9.089,9.089-9.089,23.823,0,32.912 c4.544,4.544,10.501,6.816,16.457,6.816s11.913-2.273,16.455-6.816l65.825-65.826c9.089-9.089,9.089-23.824,0-32.912 S149.892,317.556,140.805,326.645z"/><g> <path style="fill:#C4D9FD;" d="M256,11.636c-12.853,0-23.273,10.42-23.273,23.273v46.545c0,12.853,10.42,23.273,23.273,23.273 c12.853,0,23.273-10.42,23.273-23.273V34.909C279.273,22.056,268.853,11.636,256,11.636z"/> <path style="fill:#C4D9FD;" d="M404.105,63.344L338.28,129.17c-9.089,9.089-9.089,23.824,0,32.912 c4.544,4.544,10.501,6.817,16.457,6.817s11.913-2.273,16.455-6.817l65.825-65.826c9.089-9.089,9.089-23.824,0-32.912 C427.93,54.255,413.192,54.255,404.105,63.344z"/> </g><path style="fill:#3D6DEB;" d="M256,360.727c-12.853,0-23.273,10.42-23.273,23.273v93.091c0,12.853,10.42,23.273,23.273,23.273 c12.853,0,23.273-10.42,23.273-23.273V384C279.273,371.147,268.853,360.727,256,360.727z"/><path style="fill:#5286FA;" d="M371.192,326.645c-9.086-9.089-23.824-9.089-32.912,0c-9.089,9.087-9.089,23.824,0,32.912 l65.825,65.826c4.544,4.544,10.501,6.816,16.457,6.816c5.955,0,11.913-2.273,16.455-6.816c9.089-9.089,9.089-23.824,0-32.912 L371.192,326.645z"/></symbol><symbol id="refresh-button" viewBox="0 0 487.23 487.23"><title>refresh-button</title><path d="M55.323,203.641c15.664,0,29.813-9.405,35.872-23.854c25.017-59.604,83.842-101.61,152.42-101.61 c37.797,0,72.449,12.955,100.23,34.442l-21.775,3.371c-7.438,1.153-13.224,7.054-14.232,14.512 c-1.01,7.454,3.008,14.686,9.867,17.768l119.746,53.872c5.249,2.357,11.33,1.904,16.168-1.205 c4.83-3.114,7.764-8.458,7.796-14.208l0.621-131.943c0.042-7.506-4.851-14.144-12.024-16.332 c-7.185-2.188-14.947,0.589-19.104,6.837l-16.505,24.805C370.398,26.778,310.1,0,243.615,0C142.806,0,56.133,61.562,19.167,149.06 c-5.134,12.128-3.84,26.015,3.429,36.987C29.865,197.023,42.152,203.641,55.323,203.641z"/><path d="M464.635,301.184c-7.27-10.977-19.558-17.594-32.728-17.594c-15.664,0-29.813,9.405-35.872,23.854 c-25.018,59.604-83.843,101.61-152.42,101.61c-37.798,0-72.45-12.955-100.232-34.442l21.776-3.369 c7.437-1.153,13.223-7.055,14.233-14.514c1.009-7.453-3.008-14.686-9.867-17.768L49.779,285.089 c-5.25-2.356-11.33-1.905-16.169,1.205c-4.829,3.114-7.764,8.458-7.795,14.207l-0.622,131.943 c-0.042,7.506,4.85,14.144,12.024,16.332c7.185,2.188,14.948-0.59,19.104-6.839l16.505-24.805 c44.004,43.32,104.303,70.098,170.788,70.098c100.811,0,187.481-61.561,224.446-149.059 C473.197,326.043,471.903,312.157,464.635,301.184z"/></symbol><symbol id="filter-filled-tool-symbol" viewBox="0 0 971.986 971.986"><title>filter-filled-tool-symbol</title><path d="M370.216,459.3c10.2,11.1,15.8,25.6,15.8,40.6v442c0,26.601,32.1,40.101,51.1,21.4l123.3-141.3 c16.5-19.8,25.6-29.601,25.6-49.2V500c0-15,5.7-29.5,15.8-40.601L955.615,75.5c26.5-28.8,6.101-75.5-33.1-75.5h-873 c-39.2,0-59.7,46.6-33.1,75.5L370.216,459.3z"/></symbol><symbol id="movie-player-play-button" viewBox="0 0 350 350"><title>movie-player-play-button</title><path d="M175,0C78.343,0,0,78.343,0,175c0,96.656,78.343,175,175,175c96.656,0,175-78.344,175-175C350,78.343,271.656,0,175,0z M258.738,189.05l-104.386,71.812c-2.904,1.989-6.284,3.006-9.673,3.006c-2.728,0-5.436-0.648-7.93-1.951 c-5.605-2.965-9.125-8.777-9.125-15.103V103.188c0-6.326,3.52-12.139,9.125-15.104c5.605-2.94,12.377-2.535,17.603,1.055 l104.386,71.811c4.619,3.18,7.387,8.441,7.387,14.05C266.125,180.609,263.358,185.87,258.738,189.05z"/></symbol><symbol id="book-6" viewBox="0 0 508.52 508.52"><title>book-6</title><path style="fill:#010002;" d="M461.513,0H111.906C68.046,0,32.545,35.247,31.91,78.948l-0.127-0.159v349.607 c0,44.241,35.882,80.124,80.124,80.124h270.151c17.544,0,31.115-14.239,31.115-31.782V143.021c0-8.772-6.452-15.891-15.224-15.891 H111.906c-26.666,0-48.341-20.373-48.341-47.006c0-26.666,21.676-48.341,48.341-48.341h333.049v365.499 c0,8.74,7.787,15.891,16.559,15.891s15.224-7.151,15.224-15.891V15.891C476.737,7.119,470.285,0,461.513,0z M111.906,158.912 h269.515l0.667,317.825H111.938c-26.697,0-48.373-21.676-48.373-48.341V143.371C76.914,153.16,93.599,158.912,111.906,158.912z"/></symbol><symbol id="stars" viewBox="0 0 406.125 406.125"><title>stars</title><path style="fill:#010002;" d="M260.133,155.967c-4.487,0-9.25-3.463-10.64-7.73L205.574,13.075c-1.39-4.268-3.633-4.268-5.023,0 L156.64,148.237c-1.39,4.268-6.153,7.73-10.64,7.73H3.88c-4.487,0-5.186,2.138-1.553,4.78l114.971,83.521 c3.633,2.642,5.454,8.242,4.064,12.51L77.452,391.932c-1.39,4.268,0.431,5.592,4.064,2.951l114.971-83.521 c3.633-2.642,9.519-2.642,13.152,0l114.971,83.529c3.633,2.642,5.454,1.317,4.064-2.951l-43.911-135.154 c-1.39-4.268,0.431-9.868,4.064-12.51l114.971-83.521c3.633-2.642,2.934-4.78-1.553-4.78H260.133V155.967z"/></symbol><symbol id="book-5" viewBox="0 0 512 512"><title>book-5</title><path d="M128,64v448l160-160l160,160V64H128z M384,0H64v448l32-32V32h288V0z"/></symbol><symbol id="credit-card-1" viewBox="0 0 548.176 548.176"><title>credit-card-1</title><path d="M534.754,68.238c-8.945-8.945-19.698-13.417-32.258-13.417H45.681c-12.562,0-23.313,4.471-32.264,13.417 C4.471,77.185,0,87.936,0,100.499v347.173c0,12.566,4.471,23.318,13.417,32.264c8.951,8.946,19.702,13.419,32.264,13.419h456.815 c12.56,0,23.312-4.473,32.258-13.419c8.945-8.945,13.422-19.697,13.422-32.264V100.499 C548.176,87.936,543.699,77.185,534.754,68.238z M511.627,447.679c0,2.478-0.903,4.613-2.711,6.427 c-1.807,1.8-3.949,2.703-6.42,2.703H45.681c-2.473,0-4.615-0.903-6.423-2.71c-1.807-1.813-2.712-3.949-2.712-6.427V274.088 h475.082V447.679z M511.627,164.449H36.545v-63.954c0-2.474,0.902-4.611,2.712-6.423c1.809-1.803,3.951-2.708,6.423-2.708h456.815 c2.471,0,4.613,0.901,6.42,2.708c1.808,1.812,2.711,3.949,2.711,6.423V164.449L511.627,164.449z"/><rect x="73.092" y="383.719" width="73.089" height="36.548"/><rect x="182.728" y="383.719" width="109.634" height="36.548"/></symbol><symbol id="school" viewBox="0 0 475.452 475.451"><title>school</title><path d="M468.083,118.385c-3.99-5.33-9.61-9.419-16.854-12.275c0.387,6.665-0.086,12.09-1.42,16.281l-85.65,281.789 c-1.526,4.948-4.859,8.897-9.992,11.848c-5.141,2.953-10.469,4.428-15.989,4.428H74.66c-22.84,0-36.542-6.652-41.112-19.985 c-1.903-5.14-1.807-9.229,0.288-12.275c2.092-2.857,5.708-4.288,10.85-4.288h248.102c17.702,0,29.93-3.285,36.688-9.852 c6.763-6.567,13.565-21.177,20.413-43.824l78.228-258.669c4.186-14.084,2.474-26.457-5.141-37.113s-18.462-15.987-32.548-15.987 H173.163c-2.474,0-7.329,0.854-14.562,2.568l0.284-0.859c-5.33-1.14-9.851-1.662-13.562-1.571 c-3.71,0.099-7.137,1.192-10.277,3.289c-3.14,2.094-5.664,4.328-7.566,6.706c-1.903,2.38-3.761,5.426-5.568,9.136 c-1.805,3.715-3.33,7.142-4.567,10.282c-1.237,3.14-2.666,6.473-4.281,9.998c-1.62,3.521-3.186,6.423-4.71,8.706 c-1.143,1.523-2.758,3.521-4.854,5.996c-2.091,2.474-3.805,4.664-5.137,6.567c-1.331,1.903-2.19,3.616-2.568,5.14 c-0.378,1.711-0.19,4.233,0.571,7.566c0.76,3.328,1.047,5.753,0.854,7.277c-0.76,7.232-3.378,16.414-7.849,27.552 c-4.471,11.136-8.52,19.18-12.135,24.126c-0.761,0.95-2.853,3.092-6.28,6.424c-3.427,3.33-5.52,6.23-6.279,8.704 c-0.762,0.951-0.81,3.617-0.144,7.994c0.666,4.38,0.907,7.423,0.715,9.136c-0.765,6.473-3.14,15.037-7.139,25.697 c-3.999,10.657-7.994,19.414-11.993,26.265c-0.569,1.141-2.185,3.328-4.853,6.567c-2.662,3.237-4.283,5.902-4.853,7.99 c-0.38,1.523-0.33,4.188,0.144,7.994c0.473,3.806,0.426,6.66-0.144,8.562c-1.521,7.228-4.377,15.94-8.565,26.125 c-4.187,10.178-8.47,18.896-12.851,26.121c-1.138,1.906-2.712,4.145-4.708,6.711c-1.999,2.566-3.568,4.805-4.711,6.707 c-1.141,1.903-1.903,3.901-2.284,5.996c-0.19,1.143,0.098,2.998,0.859,5.571c0.76,2.566,1.047,4.612,0.854,6.14 c-0.192,2.662-0.57,6.187-1.141,10.567c-0.572,4.373-0.859,6.939-0.859,7.699c-4.187,11.424-3.999,23.511,0.572,36.269 c5.33,14.838,14.797,27.36,28.406,37.541c13.61,10.185,27.74,15.27,42.398,15.27h263.521c12.367,0,24.026-4.141,34.971-12.416 c10.944-8.281,18.227-18.507,21.837-30.696l78.511-258.662C477.412,141.51,475.701,129.234,468.083,118.385z M164.31,118.956 l5.997-18.274c0.76-2.474,2.329-4.615,4.709-6.423c2.38-1.805,4.808-2.712,7.282-2.712h173.589c2.663,0,4.565,0.903,5.708,2.712 c1.14,1.809,1.335,3.949,0.575,6.423l-6.002,18.274c-0.764,2.475-2.327,4.611-4.713,6.424c-2.382,1.805-4.805,2.708-7.278,2.708 H170.593c-2.666,0-4.568-0.9-5.711-2.708C163.74,123.567,163.55,121.431,164.31,118.956z M140.615,192.045l5.996-18.271 c0.76-2.474,2.331-4.615,4.709-6.423c2.38-1.809,4.805-2.712,7.282-2.712h173.583c2.666,0,4.572,0.9,5.712,2.712 c1.14,1.809,1.331,3.949,0.568,6.423l-5.996,18.271c-0.759,2.474-2.33,4.617-4.708,6.423c-2.383,1.809-4.805,2.712-7.283,2.712 H146.895c-2.664,0-4.567-0.9-5.708-2.712C140.043,196.662,139.854,194.519,140.615,192.045z"/></symbol><symbol id="shopping-cart-black-shape" viewBox="0 0 475.084 475.085"><title>shopping-cart-black-shape</title><path d="M365.446,401.998c0,10.092,3.579,18.702,10.711,25.834c7.132,7.139,15.749,10.711,25.845,10.711 c10.081,0,18.698-3.572,25.83-10.711c7.139-7.132,10.711-15.742,10.711-25.834s-3.568-18.702-10.711-25.841 c-7.132-7.132-15.749-10.704-25.83-10.704c-10.096,0-18.713,3.572-25.845,10.704C369.025,383.296,365.446,391.906,365.446,401.998 z"/><path d="M469.658,78.51c-3.618-3.617-7.898-5.426-12.848-5.426H113.918c-0.193-1.331-0.621-3.756-1.287-7.277 c-0.666-3.523-1.188-6.329-1.569-8.425c-0.383-2.087-1.093-4.611-2.142-7.561c-1.047-2.952-2.284-5.286-3.711-6.995 c-1.425-1.718-3.328-3.189-5.708-4.43c-2.378-1.233-5.092-1.853-8.136-1.853H18.276c-4.952,0-9.234,1.812-12.85,5.424 C1.809,45.583,0,49.868,0,54.816s1.809,9.231,5.426,12.847c3.619,3.617,7.902,5.424,12.85,5.424h58.237l50.532,234.976 c-0.378,0.76-2.329,4.373-5.852,10.848c-3.521,6.475-6.328,12.135-8.42,16.988c-2.093,4.859-3.14,8.616-3.14,11.279 c0,4.948,1.809,9.232,5.424,12.854c3.621,3.606,7.902,5.421,12.851,5.421h18.272h255.815h18.261c4.948,0,9.232-1.814,12.847-5.421 c3.62-3.621,5.427-7.905,5.427-12.854c0-4.949-1.807-9.233-5.427-12.847c-3.614-3.614-7.898-5.428-12.847-5.428h-262.66 c4.57-9.138,6.854-15.222,6.854-18.268c0-1.909-0.238-4.004-0.715-6.283s-1.047-4.805-1.713-7.569 c-0.667-2.752-1.093-4.799-1.283-6.133l298.077-34.831c4.753-0.575,8.658-2.614,11.703-6.14c3.046-3.518,4.565-7.562,4.565-12.133 V91.363C475.082,86.415,473.278,82.132,469.658,78.51z"/><path d="M109.632,401.998c0,10.092,3.567,18.702,10.706,25.834c7.141,7.139,15.75,10.711,25.841,10.711 c10.085,0,18.699-3.572,25.835-10.711c7.139-7.132,10.71-15.742,10.71-25.834s-3.568-18.702-10.71-25.841 c-7.137-7.132-15.75-10.704-25.835-10.704c-10.09,0-18.704,3.572-25.841,10.704C113.203,383.296,109.632,391.906,109.632,401.998z "/></symbol><symbol id="feminine-fashion-handbag-for-money" viewBox="0 0 915.917 915.917"><title>feminine-fashion-handbag-for-money</title><path d="M119.509,831.176h338.399h338.4c49.7,0,90-40.3,90-90V590.277c0-34.101-12.6-65.2-33.3-89 c-10.9-13.101-70-87.901-83.9-191.001c-3.399-24.8-24.5-43.3-49.5-43.3H458.009h-261.7c-25,0-46.2,18.5-49.5,43.3 c-13.9,103.1-73,177.9-83.9,191.001c-20.7,23.8-33.3,55-33.3,89v150.899C29.509,790.876,69.809,831.176,119.509,831.176z"/><path d="M74.809,285.976c-8.7,48-27.7,114.8-68.5,160.9c-9.2,10.3-8.2,26.1,2.1,35.3c4.8,4.2,10.7,6.3,16.6,6.3 c6.9,0,13.8-2.8,18.7-8.399c48.5-54.701,70.5-130.8,80.3-185.101c5.6-31,32.5-53.5,64-53.5h255.7h284.199 c31.4,0,58.301,22.5,64,53.5c9.9,54.3,31.801,130.4,80.301,185.101c4.899,5.6,11.8,8.399,18.699,8.399 c5.9,0,11.801-2.1,16.601-6.3c10.3-9.2,11.3-25,2.1-35.3c-40.8-46-59.8-112.9-68.5-160.9c-10-54.8-57.6-94.6-113.2-94.6H499.209 l15-17.5c1.6,0.2,3.1,0.3,4.699,0.3c25.301,0,45.7-21,44.7-46.5c-0.899-23.2-19.8-42.1-42.899-42.9c-25.5-1-46.5,19.4-46.5,44.7 c0,6.5,1.399,12.7,3.899,18.3l-14.8,17.3c-2.8,3.3-7.799,3.3-10.599,0l-14.601-17c2.9-6.7,4.2-14.3,3.4-22.3 c-2.2-21.4-19.7-38.5-41.2-40c-26.2-1.9-48,18.8-48,44.6c0,24.7,20,44.7,44.7,44.7c1.899,0,3.7-0.1,5.5-0.4l14.2,16.6h-228.7 C132.409,191.376,84.809,231.176,74.809,285.976z"/></symbol><symbol id="star-1" viewBox="0 0 382.402 382.402"><title>star-1</title><path d="M381.918,147.437c-1.323-4.074-5.122-6.831-9.401-6.831h-131.33l-40.582-124.9c-1.322-4.072-5.12-6.831-9.402-6.831 s-8.08,2.759-9.403,6.831l-40.581,124.9H9.888c-4.282,0-8.081,2.756-9.404,6.831c-1.322,4.074,0.126,8.535,3.591,11.053 l106.245,77.193l-40.582,124.9c-1.323,4.074,0.125,8.535,3.592,11.054c3.466,2.521,8.157,2.521,11.623,0l106.249-77.192 l106.249,77.192c1.731,1.262,3.773,1.888,5.811,1.888c2.038,0,4.079-0.626,5.812-1.888c3.466-2.519,4.913-6.979,3.591-11.054 l-40.58-124.9l106.242-77.193C381.791,155.972,383.241,151.511,381.918,147.437z M254.647,223.913 c-3.465,2.519-4.913,6.979-3.591,11.054l33.402,102.791l-87.446-63.527c-1.732-1.26-3.774-1.887-5.812-1.887 s-4.079,0.627-5.812,1.887l-87.447,63.527l33.403-102.791c1.323-4.074-0.126-8.535-3.592-11.054l-87.441-63.536H148.4 c4.28,0,8.079-2.756,9.402-6.831L191.201,50.75l33.397,102.796c1.322,4.074,5.121,6.831,9.403,6.831h108.087L254.647,223.913z"/></symbol><symbol id="people" viewBox="0 0 350 350"><title>people</title><path d="M175,171.173c38.914,0,70.463-38.318,70.463-85.586C245.463,38.318,235.105,0,175,0s-70.465,38.318-70.465,85.587 C104.535,132.855,136.084,171.173,175,171.173z"/><path d="M41.909,301.853C41.897,298.971,41.885,301.041,41.909,301.853L41.909,301.853z"/><path d="M308.085,304.104C308.123,303.315,308.098,298.63,308.085,304.104L308.085,304.104z"/><path d="M307.935,298.397c-1.305-82.342-12.059-105.805-94.352-120.657c0,0-11.584,14.761-38.584,14.761 s-38.586-14.761-38.586-14.761c-81.395,14.69-92.803,37.805-94.303,117.982c-0.123,6.547-0.18,6.891-0.202,6.131 c0.005,1.424,0.011,4.058,0.011,8.651c0,0,19.592,39.496,133.08,39.496c113.486,0,133.08-39.496,133.08-39.496 c0-2.951,0.002-5.003,0.005-6.399C308.062,304.575,308.018,303.664,307.935,298.397z"/></symbol><symbol id="next" viewBox="0 0 129 129"><title>next</title><path d="m40.4,121.3c-0.8,0.8-1.8,1.2-2.9,1.2s-2.1-0.4-2.9-1.2c-1.6-1.6-1.6-4.2 0-5.8l51-51-51-51c-1.6-1.6-1.6-4.2 0-5.8 1.6-1.6 4.2-1.6 5.8,0l53.9,53.9c1.6,1.6 1.6,4.2 0,5.8l-53.9,53.9z"/></symbol><symbol id="star" viewBox="0 0 482.207 482.207"><title>star</title><path d="M482.207,186.973l-159.699-33.705L241.104,11.803l-81.404,141.465L0,186.973l109.388,121.134L92.094,470.404l149.01-66.6 l149.01,66.6l-17.294-162.296L482.207,186.973z M241.104,370.943V71.953l62.09,107.9L425,205.561l-83.433,92.393l13.191,123.788 L241.104,370.943z"/></symbol><symbol id="favorite" viewBox="0 0 455 455"><title>favorite</title><path d="M326.632,10.346c-38.733,0-74.991,17.537-99.132,46.92c-24.141-29.383-60.399-46.92-99.132-46.92 C57.586,10.346,0,67.931,0,138.714c0,55.426,33.049,119.535,98.23,190.546c50.162,54.649,104.729,96.96,120.257,108.626l9.01,6.769 l9.009-6.768c15.53-11.667,70.099-53.979,120.26-108.625C421.95,258.251,455,194.141,455,138.714 C455,67.931,397.414,10.346,326.632,10.346z"/></symbol><symbol id="back" viewBox="0 0 477.175 477.175"><title>back</title><path d="M145.188,238.575l215.5-215.5c5.3-5.3,5.3-13.8,0-19.1s-13.8-5.3-19.1,0l-225.1,225.1c-5.3,5.3-5.3,13.8,0,19.1l225.1,225 c2.6,2.6,6.1,4,9.5,4s6.9-1.3,9.5-4c5.3-5.3,5.3-13.8,0-19.1L145.188,238.575z"/></symbol><symbol id="book-4" viewBox="0 0 512.438 512.438"><title>book-4</title><g> <path style="fill:#FF4F19;" d="M424,116.219h-40c-4.418,0-8,3.582-8,8v216h56v-216C432,119.801,428.418,116.219,424,116.219z"/> </g><g> <path style="fill:#E3001E;" d="M404,116.219h-20c-4.418,0-8,3.582-8,8v216h28V116.219z"/> </g><g> <path style="fill:#E3001E;" d="M168.219,84.219H120c-4.418,0-8,3.582-8,8v248h64.219v-248 C176.219,87.801,172.637,84.219,168.219,84.219z"/> </g><g> <path style="fill:#FF4F19;" d="M168.219,84.219H144v256h32.219v-248C176.219,87.801,172.637,84.219,168.219,84.219z"/> </g><g> <g> <path style="fill:#868491;" d="M80,452.219c-2.977,0-5.781-1.668-7.156-4.422l-40-80c-1.977-3.953-0.375-8.758,3.578-10.734 c3.945-1.969,8.758-0.375,10.734,3.578L72,410.332v-46.113c0-4.418,3.578-8,8-8s8,3.582,8,8v80c0,3.711-2.555,6.934-6.164,7.785 C81.227,452.149,80.609,452.219,80,452.219z"/> </g> </g><g> <g> <path style="fill:#868491;" d="M432.219,452.219c-0.609,0-1.227-0.07-1.836-0.215c-3.609-0.852-6.164-4.074-6.164-7.785v-80 c0-4.418,3.578-8,8-8s8,3.582,8,8v46.113l24.844-49.691c1.984-3.953,6.781-5.547,10.734-3.578 c3.953,1.977,5.555,6.781,3.578,10.734l-40,80C438,450.551,435.195,452.219,432.219,452.219z"/> </g> </g><g> <path style="fill:#5D647F;" d="M248,84.219h-16c-4.418,0-8,3.582-8,8v248h32v-248C256,87.801,252.418,84.219,248,84.219z"/> </g><g> <path style="fill:#4BB9EC;" d="M368,84.219h-16c-4.418,0-8,3.582-8,8v248h32v-248C376,87.801,372.418,84.219,368,84.219z"/> </g><g> <path style="fill:#FF9100;" d="M104,108.219H88c-4.418,0-8,3.582-8,8v223.125c0,0.483,0.392,0.875,0.875,0.875H112v-224 C112,111.801,108.418,108.219,104,108.219z"/> </g><g> <path style="fill:#00C37A;" d="M72,132.219H48c-4.418,0-8,3.582-8,8v200h40v-200C80,135.801,76.418,132.219,72,132.219z"/> </g><g> <path style="fill:#5D647F;" d="M464,100.219h-24c-4.418,0-8,3.582-8,8v232h40v-232C472,103.801,468.418,100.219,464,100.219z"/> </g><g> <path style="fill:#FF9100;" d="M336,60.219h-40c-4.418,0-8,3.582-8,8v272h56v-272C344,63.801,340.418,60.219,336,60.219z"/> </g><g> <path style="fill:#00C37A;" d="M280,116.219h-16c-4.418,0-8,3.582-8,8v216h32v-216C288,119.801,284.418,116.219,280,116.219z"/> </g><g> <path style="fill:#4BB9EC;" d="M216,100.219h-32c-4.418,0-8,3.582-8,8v232h48v-232C224,103.801,220.418,100.219,216,100.219z"/> </g><g> <path style="fill:#E6BE8A;" d="M504.438,372.219H8c-4.418,0-8-3.582-8-8v-16c0-4.418,3.582-8,8-8h496.438c4.418,0,8,3.582,8,8v16 C512.438,368.637,508.856,372.219,504.438,372.219z"/> </g><g> <rect x="112" y="108.219" style="fill:#5D647F;" width="32" height="16"/> </g><g> <rect x="144" y="108.219" style="fill:#868491;" width="32" height="16"/> </g><g> <rect x="112" y="300.219" style="fill:#5D647F;" width="32" height="16"/> </g><g> <rect x="144" y="300.219" style="fill:#868491;" width="32" height="16"/> </g><g> <g> <rect x="272.219" y="140.219" style="fill:#00A077;" width="16" height="16"/> </g> </g><g> <g> <rect x="272.219" y="292.219" style="fill:#00A077;" width="16" height="16"/> </g> </g><g> <g> <rect x="376" y="140.219" style="fill:#FF9100;" width="28" height="16"/> </g> </g><g> <g> <rect x="376" y="292.219" style="fill:#FF9100;" width="28" height="16"/> </g> </g><g> <g> <rect x="404" y="140.219" style="fill:#FFCD00;" width="28" height="16"/> </g> </g><g> <g> <rect x="404" y="292.219" style="fill:#FFCD00;" width="28" height="16"/> </g> </g><g> <path style="fill:#009BCA;" d="M176,108.219v232h24v-240h-16C179.582,100.219,176,103.801,176,108.219z"/> </g><g> <path style="fill:#FF4F19;" d="M80,340.219h16v-232h-8c-4.418,0-8,3.582-8,8V340.219z"/> </g><g> <path style="fill:#00A077;" d="M40,340.219h20v-208H46.998c-3.865,0-6.998,3.133-6.998,6.998V340.219z"/> </g><g> <path style="fill:#5C546A;" d="M224,340.219h16v-256h-8c-4.418,0-8,3.582-8,8V340.219z"/> </g><g> <path style="fill:#00A077;" d="M256,340.219h16v-224h-8c-4.418,0-8,3.582-8,8V340.219z"/> </g><g> <g> <rect x="256" y="140.219" style="fill:#5D647F;" width="16" height="16"/> </g> </g><g> <g> <rect x="256" y="292.219" style="fill:#5D647F;" width="16" height="16"/> </g> </g><g> <path style="fill:#FF4F19;" d="M288,340.219h28v-280h-20c-4.418,0-8,3.582-8,8V340.219z"/> </g><g> <path style="fill:#009BCA;" d="M360,84.219h-8c-4.418,0-8,3.582-8,8v248h16V84.219z"/> </g><g> <path style="fill:#5C546A;" d="M452.22,100.219H440c-4.418,0-8,3.582-8,8v232h20.22V100.219z"/> </g><g> <path style="fill:#C9A07C;" d="M0,356.219v8c0,4.418,3.582,8,8,8h496.438c4.418,0,8-3.582,8-8v-8H0z"/> </g></symbol><symbol id="gift" viewBox="0 0 512 512"><title>gift</title><path d="M495.314,352.424c-7.211-5.328-15.674-8.078-24.314-8.078V196h20v-90h-61.035C433.813,98.493,436,90,436,81 c0-30.327-24.673-55-55-55c-15.75,0-29.964,6.665-40,17.31C330.964,32.665,316.75,26,301,26c-30.327,0-55,24.673-55,55 c0,9,2.187,17.493,6.035,25H191v90h20v57.816c-10.248-5.096-21.6-7.813-33.343-7.813L0,246v240h110v-37.621 C131.048,471.48,161.36,486,195,486h172.692l122.271-64.073C503.557,414.804,512,400.845,512,385.5 C512,372.315,505.918,360.259,495.314,352.424z M80,456H30V276h50V456z M356,81c0-13.785,11.215-25,25-25 c13.785,0,25,11.215,25,25c0,13.785-11.215,25-25,25h-25V81z M301,56c13.785,0,25,11.215,25,25v25h-25c-13.785,0-25-11.215-25-25 C276,67.215,287.215,56,301,56z M221,136h240v30H221V136z M361,306h-91.155L241,277.979V196h200v156.265l-30.457,10.403 c0.342-2.51,0.497-5.061,0.448-7.638C410.474,327.995,388.048,306,361,306z M476.039,395.354L360.308,456H195 c-46.869,0-85-38.131-85-85v-94.999l67.656,0.003c11.773,0,22.907,4.519,31.353,12.723L257.673,336H361 c10.819,0,19.789,8.794,19.996,19.604c0.1,5.214-1.931,10.211-5.717,14.07c-3.943,4.02-9.4,6.325-14.971,6.325H251.246 l-0.375-0.005h-0.104c-0.032,0-0.063,0-0.096,0c-5.197,0-10.077-2.018-13.75-5.687l-21.203,21.224 c9.325,9.316,21.7,14.445,34.879,14.463H263V406h113.491l91.294-31.189c3.354-0.972,6.882-0.343,9.701,1.741 c2.868,2.12,4.514,5.381,4.514,8.948C482,389.651,479.716,393.427,476.039,395.354z"/></symbol><symbol id="mastercard-1" viewBox="0 0 504 504"><title>mastercard-1</title><path style="fill:#07A9E2;" d="M252,364c30.4-27.2,49.6-67.2,49.6-112s-19.2-84-49.6-112c-26.4-24-62.4-39.2-100.8-39.2 C68,100.8,0,168.8,0,252s68,150.4,151.2,150.4C189.6,403.2,225.6,388,252,364L252,364z"/><path style="fill:#009DDD;" d="M0,252c0,83.2,68,150.4,151.2,150.4c39.2,0,74.4-14.4,100.8-39.2l0,0c30.4-27.2,49.6-67.2,49.6-112 S282.4,168,252,140c-26.4-24-62.4-39.2-100.8-39.2"/><path style="fill:#0284CC;" d="M252,140c-26.4-24-62.4-39.2-100.8-39.2c-2.4,0-4.8,0-7.2,0C96.8,135.2,66.4,190.4,66.4,252 s30.4,116.8,76.8,150.4c2.4,0,4.8,0,7.2,0c39.2,0,74.4-14.4,100.8-39.2c30.4-27.2,49.6-67.2,49.6-112S282.4,168,252,140z"/><path style="fill:#FF2957;" d="M353.6,100.8c-39.2,0-74.4,14.4-101.6,39.2c-5.6,4.8-10.4,10.4-15.2,16h30.4c4,4.8,8,10.4,11.2,16 h-53.6c-3.2,5.6-6.4,10.4-8.8,16h71.2c2.4,5.6,4.8,10.4,6.4,16h-83.2c-1.6,5.6-3.2,10.4-4.8,16h92.8c2.4,10.4,3.2,20.8,3.2,32 c0,16.8-2.4,32.8-8,48h-83.2c1.6,5.6,4,10.4,6.4,16H288c-2.4,5.6-5.6,11.2-8.8,16h-53.6c3.2,5.6,7.2,11.2,11.2,16h30.4 c-4.8,5.6-9.6,11.2-15.2,16c27.2,24,62.4,39.2,101.6,39.2c83.2,0,150.4-67.2,150.4-150.4C504,168.8,436.8,100.8,353.6,100.8 L353.6,100.8z"/><path style="fill:#ED1C2E;" d="M353.6,100.8L353.6,100.8c-39.2,0-74.4,14.4-101.6,39.2c-5.6,4.8-10.4,10.4-15.2,16h30.4 c4,4.8,8,10.4,11.2,16h-53.6c-3.2,5.6-6.4,10.4-8.8,16h71.2c2.4,5.6,4.8,10.4,6.4,16h-83.2c-1.6,5.6-3.2,10.4-4.8,16h92.8 c2.4,10.4,3.2,20.8,3.2,32c0,16.8-2.4,32.8-8,48h-83.2c1.6,5.6,4,10.4,6.4,16H288c-2.4,5.6-5.6,11.2-8.8,16h-53.6 c3.2,5.6,7.2,11.2,11.2,16h30.4c-4.8,5.6-9.6,11.2-15.2,16c27.2,24,62.4,39.2,101.6,39.2c83.2,0,150.4-67.2,150.4-150.4"/><path style="fill:#0466B5;" d="M252,364c30.4-27.2,49.6-67.2,49.6-112s-19.2-84-49.6-112V364L252,364z"/><path style="fill:#FFFFFF;" d="M452,284.8c0-2.4,2.4-4.8,4.8-4.8s4.8,2.4,4.8,4.8s-2.4,4.8-4.8,4.8C454.4,289.6,452,287.2,452,284.8 L452,284.8z M456.8,288.8c2.4,0,3.2-1.6,3.2-4s-1.6-3.2-3.2-3.2c-2.4,0-4,1.6-4,3.2S455.2,288.8,456.8,288.8L456.8,288.8z M456.8,286.4H456v-4h1.6c0.8,0,0.8,0,0.8,0l0.8,0.8c0,0.8,0,0.8-0.8,0.8l0.8,1.6h-0.8l-0.8-1.6h-0.8L456.8,286.4L456.8,286.4z M456.8,284L456.8,284c0.8,0,0.8,0,0.8,0s0,0,0-0.8l0,0h-0.8l0,0V284L456.8,284z"/><path style="fill:#D1094B;" d="M252,140c-5.6,4.8-10.4,10.4-15.2,16h30.4c4,4.8,8,10.4,11.2,16h-53.6c-3.2,5.6-6.4,10.4-8.8,16h71.2 c2.4,5.6,4.8,10.4,6.4,16h-83.2c-1.6,5.6-3.2,10.4-4.8,16h92.8c2.4,10.4,3.2,20.8,3.2,32c0,16.8-2.4,32.8-8,48h-83.2 c1.6,5.6,4,10.4,6.4,16H288c-2.4,5.6-5.6,11.2-8.8,16h-53.6c3.2,5.6,7.2,11.2,11.2,16h30.4c-4.8,5.6-9.6,11.2-15.2,16 c27.2,24,62.4,39.2,101.6,39.2c2.4,0,4.8,0,7.2,0c46.4-33.6,76.8-88.8,76.8-150.4S407.2,136,360.8,102.4c-2.4,0-4.8,0-7.2,0 C314.4,100.8,279.2,116,252,140z"/><polygon style="fill:#FFFFFF;" points="132,289.6 112.8,289.6 124,231.2 98.4,289.6 81.6,289.6 78.4,231.2 67.2,289.6 50.4,289.6 64.8,212.8 94.4,212.8 96,260.8 116.8,212.8 147.2,212.8 "/><g> <path style="fill:#DCE5E5;" d="M113.6,256l11.2-24.8l-8.8,46.4c0.8,4,1.6,8.8,3.2,12.8H132l14.4-76.8h-28 c-3.2,12-5.6,25.6-5.6,39.2C113.6,253.6,113.6,254.4,113.6,256z"/> <path style="fill:#DCE5E5;" d="M341.6,288.8c-5.6,1.6-8.8,2.4-13.6,2.4c-9.6,0-14.4-4.8-14.4-13.6c0-1.6,0-3.2,0.8-5.6l0.8-6.4 l0.8-4.8l8.8-47.2h18.4l-2.4,14.4h9.6l-2.4,14.4h-9.6l-4.8,25.6c0,0.8-0.8,2.4-0.8,2.4c0,3.2,2.4,4.8,6.4,4.8c2.4,0,4,0,4.8-0.8 L341.6,288.8L341.6,288.8z"/> <path style="fill:#DCE5E5;" d="M396.8,228c-1.6-0.8-1.6-0.8-2.4-0.8s-1.6,0-1.6-0.8c-0.8,0-0.8,0-2.4,0c-6.4,0-10.4,2.4-16,10.4 l1.6-9.6h-16.8L348,289.6h19.2c6.4-38.4,9.6-44.8,18.4-44.8c0.8,0,1.6,0,2.4,0l2.4,0.8L396.8,228L396.8,228z"/> <path style="fill:#DCE5E5;" d="M267.2,247.2c0,8,4.8,13.6,14.4,16.8c8,3.2,8.8,4,8.8,7.2c0,4-3.2,5.6-11.2,5.6 c-5.6,0-11.2-0.8-16.8-2.4l-2.4,14.4h0.8l3.2,0.8c0.8,0,3.2,0,4.8,0c4.8,0.8,8,0.8,10.4,0.8c20,0,29.6-6.4,29.6-20.8 c0-8.8-4-13.6-13.6-17.6c-8-3.2-8.8-4-8.8-6.4c0-3.2,3.2-4.8,9.6-4.8c3.2,0,8.8,0,13.6,0.8l2.4-14.4c-4.8-0.8-12-0.8-16.8-0.8 C274.4,226.4,267.2,236,267.2,247.2L267.2,247.2z"/> <path style="fill:#DCE5E5;" d="M192.8,289.6h-15.2v-6.4c-4.8,4.8-11.2,7.2-20,7.2c-10.4,0-16.8-7.2-16.8-16.8c0-15.2,12-24,32.8-24 c2.4,0,4.8,0,8,0c0.8-2.4,0.8-3.2,0.8-4c0-4-3.2-5.6-12-5.6c-5.6,0-11.2,0.8-15.2,1.6l-2.4,0.8h-1.6l2.4-13.6 c9.6-2.4,15.2-3.2,22.4-3.2c16,0,24.8,6.4,24.8,18.4c0,3.2,0,5.6-1.6,12.8l-4,22.4l-0.8,4l-0.8,3.2v2.4L192.8,289.6L192.8,289.6z M179.2,261.6c-2.4,0-3.2,0-4,0c-10.4,0-16,3.2-16,9.6c0,4,2.4,6.4,6.4,6.4C173.6,277.6,179.2,271.2,179.2,261.6L179.2,261.6z"/> <path style="fill:#DCE5E5;" d="M254.4,288c-6.4,1.6-12.8,2.4-19.2,2.4c-20.8,0-32-9.6-32-28c0-21.6,13.6-36.8,32.8-36.8 c15.2,0,24.8,8.8,24.8,22.4c0,4.8-0.8,8.8-2.4,15.2h-37.6c0,0.8,0,1.6,0,2.4c0,7.2,5.6,11.2,16,11.2c7.2,0,12.8-0.8,19.2-4 L254.4,288L254.4,288z M244.8,251.2c0-0.8,0-2.4,0-3.2c0-4.8-3.2-8-8.8-8s-10.4,4-12,11.2H244.8L244.8,251.2z"/> </g><g> <path style="fill:#FFFFFF;" d="M455.2,261.6c-3.2,20.8-17.6,29.6-36.8,29.6c-20.8,0-29.6-12.8-29.6-28.8 c0-21.6,14.4-36.8,36.8-36.8c19.2,0,29.6,12.8,29.6,28C455.2,257.6,455.2,257.6,455.2,261.6L455.2,261.6z M435.2,253.6 c0-6.4-2.4-12-10.4-12c-9.6,0-15.2,11.2-15.2,21.6c0,8,4,13.6,10.4,13.6c4,0,12.8-5.6,14.4-15.2C435.2,258.4,435.2,256,435.2,253.6 L435.2,253.6z"/> <path style="fill:#FFFFFF;" d="M389.6,269.6c0.8-5.6,1.6-12,1.6-17.6c0-0.8,0-1.6,0-1.6c-0.8,4-1.6,8-1.6,12.8 C388.8,264.8,388.8,267.2,389.6,269.6z"/> </g></symbol><symbol id="mastercard" viewBox="0 0 504 504"><title>mastercard</title><path style="fill:#FFB600;" d="M504,252c0,83.2-67.2,151.2-151.2,151.2c-83.2,0-151.2-68-151.2-151.2l0,0 c0-83.2,67.2-151.2,150.4-151.2C436.8,100.8,504,168.8,504,252L504,252z"/><path style="fill:#F7981D;" d="M352.8,100.8c83.2,0,151.2,68,151.2,151.2l0,0c0,83.2-67.2,151.2-151.2,151.2 c-83.2,0-151.2-68-151.2-151.2"/><path style="fill:#FF8500;" d="M352.8,100.8c83.2,0,151.2,68,151.2,151.2l0,0c0,83.2-67.2,151.2-151.2,151.2"/><path style="fill:#FF5050;" d="M149.6,100.8C67.2,101.6,0,168.8,0,252s67.2,151.2,151.2,151.2c39.2,0,74.4-15.2,101.6-39.2l0,0l0,0 c5.6-4.8,10.4-10.4,15.2-16h-31.2c-4-4.8-8-10.4-11.2-15.2h53.6c3.2-4.8,6.4-10.4,8.8-16h-71.2c-2.4-4.8-4.8-10.4-6.4-16h83.2 c4.8-15.2,8-31.2,8-48c0-11.2-1.6-21.6-3.2-32h-92.8c0.8-5.6,2.4-10.4,4-16h83.2c-1.6-5.6-4-11.2-6.4-16H216 c2.4-5.6,5.6-10.4,8.8-16h53.6c-3.2-5.6-7.2-11.2-12-16h-29.6c4.8-5.6,9.6-10.4,15.2-15.2c-26.4-24.8-62.4-39.2-101.6-39.2 C150.4,100.8,150.4,100.8,149.6,100.8z"/><path style="fill:#E52836;" d="M0,252c0,83.2,67.2,151.2,151.2,151.2c39.2,0,74.4-15.2,101.6-39.2l0,0l0,0 c5.6-4.8,10.4-10.4,15.2-16h-31.2c-4-4.8-8-10.4-11.2-15.2h53.6c3.2-4.8,6.4-10.4,8.8-16h-71.2c-2.4-4.8-4.8-10.4-6.4-16h83.2 c4.8-15.2,8-31.2,8-48c0-11.2-1.6-21.6-3.2-32h-92.8c0.8-5.6,2.4-10.4,4-16h83.2c-1.6-5.6-4-11.2-6.4-16H216 c2.4-5.6,5.6-10.4,8.8-16h53.6c-3.2-5.6-7.2-11.2-12-16h-29.6c4.8-5.6,9.6-10.4,15.2-15.2c-26.4-24.8-62.4-39.2-101.6-39.2h-0.8"/><path style="fill:#CB2026;" d="M151.2,403.2c39.2,0,74.4-15.2,101.6-39.2l0,0l0,0c5.6-4.8,10.4-10.4,15.2-16h-31.2 c-4-4.8-8-10.4-11.2-15.2h53.6c3.2-4.8,6.4-10.4,8.8-16h-71.2c-2.4-4.8-4.8-10.4-6.4-16h83.2c4.8-15.2,8-31.2,8-48 c0-11.2-1.6-21.6-3.2-32h-92.8c0.8-5.6,2.4-10.4,4-16h83.2c-1.6-5.6-4-11.2-6.4-16H216c2.4-5.6,5.6-10.4,8.8-16h53.6 c-3.2-5.6-7.2-11.2-12-16h-29.6c4.8-5.6,9.6-10.4,15.2-15.2c-26.4-24.8-62.4-39.2-101.6-39.2h-0.8"/><g> <path style="fill:#FFFFFF;" d="M204.8,290.4l2.4-13.6c-0.8,0-2.4,0.8-4,0.8c-5.6,0-6.4-3.2-5.6-4.8l4.8-28h8.8l2.4-15.2h-8l1.6-9.6 h-16c0,0-9.6,52.8-9.6,59.2c0,9.6,5.6,13.6,12.8,13.6C199.2,292.8,203.2,291.2,204.8,290.4z"/> <path style="fill:#FFFFFF;" d="M210.4,264.8c0,22.4,15.2,28,28,28c12,0,16.8-2.4,16.8-2.4l3.2-15.2c0,0-8.8,4-16.8,4 c-17.6,0-14.4-12.8-14.4-12.8H260c0,0,2.4-10.4,2.4-14.4c0-10.4-5.6-23.2-23.2-23.2C222.4,227.2,210.4,244.8,210.4,264.8z M238.4,241.6c8.8,0,7.2,10.4,7.2,11.2H228C228,252,229.6,241.6,238.4,241.6z"/> <path style="fill:#FFFFFF;" d="M340,290.4l3.2-17.6c0,0-8,4-13.6,4c-11.2,0-16-8.8-16-18.4c0-19.2,9.6-29.6,20.8-29.6 c8,0,14.4,4.8,14.4,4.8l2.4-16.8c0,0-9.6-4-18.4-4c-18.4,0-36.8,16-36.8,46.4c0,20,9.6,33.6,28.8,33.6 C331.2,292.8,340,290.4,340,290.4z"/> <path style="fill:#FFFFFF;" d="M116.8,227.2c-11.2,0-19.2,3.2-19.2,3.2L95.2,244c0,0,7.2-3.2,17.6-3.2c5.6,0,10.4,0.8,10.4,5.6 c0,3.2-0.8,4-0.8,4s-4.8,0-7.2,0c-13.6,0-28.8,5.6-28.8,24c0,14.4,9.6,17.6,15.2,17.6c11.2,0,16-7.2,16.8-7.2l-0.8,6.4H132l6.4-44 C138.4,228,122.4,227.2,116.8,227.2z M120,263.2c0,2.4-1.6,15.2-11.2,15.2c-4.8,0-6.4-4-6.4-6.4c0-4,2.4-9.6,14.4-9.6 C119.2,263.2,120,263.2,120,263.2z"/> <path style="fill:#FFFFFF;" d="M153.6,292c4,0,24,0.8,24-20.8c0-20-19.2-16-19.2-24c0-4,3.2-5.6,8.8-5.6c2.4,0,11.2,0.8,11.2,0.8 l2.4-14.4c0,0-5.6-1.6-15.2-1.6c-12,0-24,4.8-24,20.8c0,18.4,20,16.8,20,24c0,4.8-5.6,5.6-9.6,5.6c-7.2,0-14.4-2.4-14.4-2.4 l-2.4,14.4C136,290.4,140,292,153.6,292z"/> <path style="fill:#FFFFFF;" d="M472.8,214.4l-3.2,21.6c0,0-6.4-8-15.2-8c-14.4,0-27.2,17.6-27.2,38.4c0,12.8,6.4,26.4,20,26.4 c9.6,0,15.2-6.4,15.2-6.4l-0.8,5.6h16l12-76.8L472.8,214.4z M465.6,256.8c0,8.8-4,20-12.8,20c-5.6,0-8.8-4.8-8.8-12.8 c0-12.8,5.6-20.8,12.8-20.8C462.4,243.2,465.6,247.2,465.6,256.8z"/> <path style="fill:#FFFFFF;" d="M29.6,291.2l9.6-57.6l1.6,57.6H52l20.8-57.6L64,291.2h16.8l12.8-76.8H67.2l-16,47.2l-0.8-47.2H27.2 l-12.8,76.8H29.6z"/> <path style="fill:#FFFFFF;" d="M277.6,291.2c4.8-26.4,5.6-48,16.8-44c1.6-10.4,4-14.4,5.6-18.4c0,0-0.8,0-3.2,0 c-7.2,0-12.8,9.6-12.8,9.6l1.6-8.8h-15.2L260,292h17.6V291.2z"/> <path style="fill:#FFFFFF;" d="M376.8,227.2c-11.2,0-19.2,3.2-19.2,3.2l-2.4,13.6c0,0,7.2-3.2,17.6-3.2c5.6,0,10.4,0.8,10.4,5.6 c0,3.2-0.8,4-0.8,4s-4.8,0-7.2,0c-13.6,0-28.8,5.6-28.8,24c0,14.4,9.6,17.6,15.2,17.6c11.2,0,16-7.2,16.8-7.2l-0.8,6.4H392l6.4-44 C399.2,228,382.4,227.2,376.8,227.2z M380.8,263.2c0,2.4-1.6,15.2-11.2,15.2c-4.8,0-6.4-4-6.4-6.4c0-4,2.4-9.6,14.4-9.6 C380,263.2,380,263.2,380.8,263.2z"/> <path style="fill:#FFFFFF;" d="M412,291.2c4.8-26.4,5.6-48,16.8-44c1.6-10.4,4-14.4,5.6-18.4c0,0-0.8,0-3.2,0 c-7.2,0-12.8,9.6-12.8,9.6l1.6-8.8h-15.2L394.4,292H412V291.2z"/> </g><g> <path style="fill:#DCE5E5;" d="M180,279.2c0,9.6,5.6,13.6,12.8,13.6c5.6,0,10.4-1.6,12-2.4l2.4-13.6c-0.8,0-2.4,0.8-4,0.8 c-5.6,0-6.4-3.2-5.6-4.8l4.8-28h8.8l2.4-15.2h-8l1.6-9.6"/> <path style="fill:#DCE5E5;" d="M218.4,264.8c0,22.4,7.2,28,20,28c12,0,16.8-2.4,16.8-2.4l3.2-15.2c0,0-8.8,4-16.8,4 c-17.6,0-14.4-12.8-14.4-12.8H260c0,0,2.4-10.4,2.4-14.4c0-10.4-5.6-23.2-23.2-23.2C222.4,227.2,218.4,244.8,218.4,264.8z M238.4,241.6c8.8,0,10.4,10.4,10.4,11.2H228C228,252,229.6,241.6,238.4,241.6z"/> <path style="fill:#DCE5E5;" d="M340,290.4l3.2-17.6c0,0-8,4-13.6,4c-11.2,0-16-8.8-16-18.4c0-19.2,9.6-29.6,20.8-29.6 c8,0,14.4,4.8,14.4,4.8l2.4-16.8c0,0-9.6-4-18.4-4c-18.4,0-28.8,16-28.8,46.4c0,20,1.6,33.6,20.8,33.6 C331.2,292.8,340,290.4,340,290.4z"/> <path style="fill:#DCE5E5;" d="M95.2,244.8c0,0,7.2-3.2,17.6-3.2c5.6,0,10.4,0.8,10.4,5.6c0,3.2-0.8,4-0.8,4s-4.8,0-7.2,0 c-13.6,0-28.8,5.6-28.8,24c0,14.4,9.6,17.6,15.2,17.6c11.2,0,16-7.2,16.8-7.2l-0.8,6.4H132l6.4-44c0-18.4-16-19.2-22.4-19.2 M128,263.2c0,2.4-9.6,15.2-19.2,15.2c-4.8,0-6.4-4-6.4-6.4c0-4,2.4-9.6,14.4-9.6C119.2,263.2,128,263.2,128,263.2z"/> <path style="fill:#DCE5E5;" d="M136,290.4c0,0,4.8,1.6,18.4,1.6c4,0,24,0.8,24-20.8c0-20-19.2-16-19.2-24c0-4,3.2-5.6,8.8-5.6 c2.4,0,11.2,0.8,11.2,0.8l2.4-14.4c0,0-5.6-1.6-15.2-1.6c-12,0-16,4.8-16,20.8c0,18.4,12,16.8,12,24c0,4.8-5.6,5.6-9.6,5.6"/> <path style="fill:#DCE5E5;" d="M469.6,236c0,0-6.4-8-15.2-8c-14.4,0-19.2,17.6-19.2,38.4c0,12.8-1.6,26.4,12,26.4 c9.6,0,15.2-6.4,15.2-6.4l-0.8,5.6h16l12-76.8 M468.8,256.8c0,8.8-7.2,20-16,20c-5.6,0-8.8-4.8-8.8-12.8c0-12.8,5.6-20.8,12.8-20.8 C462.4,243.2,468.8,247.2,468.8,256.8z"/> <path style="fill:#DCE5E5;" d="M29.6,291.2l9.6-57.6l1.6,57.6H52l20.8-57.6L64,291.2h16.8l12.8-76.8h-20l-22.4,47.2l-0.8-47.2h-8.8 l-27.2,76.8H29.6z"/> <path style="fill:#DCE5E5;" d="M260.8,291.2h16.8c4.8-26.4,5.6-48,16.8-44c1.6-10.4,4-14.4,5.6-18.4c0,0-0.8,0-3.2,0 c-7.2,0-12.8,9.6-12.8,9.6l1.6-8.8"/> <path style="fill:#DCE5E5;" d="M355.2,244.8c0,0,7.2-3.2,17.6-3.2c5.6,0,10.4,0.8,10.4,5.6c0,3.2-0.8,4-0.8,4s-4.8,0-7.2,0 c-13.6,0-28.8,5.6-28.8,24c0,14.4,9.6,17.6,15.2,17.6c11.2,0,16-7.2,16.8-7.2l-0.8,6.4H392l6.4-44c0-18.4-16-19.2-22.4-19.2 M388,263.2c0,2.4-9.6,15.2-19.2,15.2c-4.8,0-6.4-4-6.4-6.4c0-4,2.4-9.6,14.4-9.6C380,263.2,388,263.2,388,263.2z"/> <path style="fill:#DCE5E5;" d="M395.2,291.2H412c4.8-26.4,5.6-48,16.8-44c1.6-10.4,4-14.4,5.6-18.4c0,0-0.8,0-3.2,0 c-7.2,0-12.8,9.6-12.8,9.6l1.6-8.8"/> </g></symbol><symbol id="book-3" viewBox="0 0 512 512"><title>book-3</title><path style="fill:#FFCA4F;" d="M256.001,512C397,512,512,396.998,512,255.999S397,0,256.001,0C115,0,0,115,0,255.999 S115,512,256.001,512z"/><path style="fill:#20D0C2;" d="M175.234,145.67h223.495l50.716,223.867l-18.573,0.094l-0.443,79.039l19.143,0.1l-0.123,13.207 H147.331c-28.593-2.219-26.044-53.042-27.573-66.648l25.454-227.568c0.1-10.114,10.62-22.088,30.025-22.088L175.234,145.67z"/><path style="fill:#1A91A1;" d="M175.234,145.67h21.406l-19.484,316.304h-29.831c-35.038-3.971-36.373-59.699-24.997-89.649 l22.878-204.57c0.1-10.112,10.623-22.088,30.025-22.088L175.234,145.67z"/><path style="fill:#FFFFFF;" d="M151.218,369.511H443.65c-13.27,27.111-12.926,53.847,0,80.229H151.218 C119.847,449.741,119.852,369.511,151.218,369.511z"/><path style="fill:#ECF0F1;" d="M129.953,391.568h305.87c-0.178,0.803-0.344,1.605-0.496,2.408H129.369 C129.55,393.163,129.741,392.358,129.953,391.568z M434.394,400.009L434.394,400.009c-0.097,0.803-0.178,1.605-0.249,2.408H128.033 c0.073-0.808,0.17-1.611,0.273-2.408H434.394z M433.837,408.45L433.837,408.45c-0.01,0.803-0.01,1.605,0,2.408H127.708 c-0.013-0.803-0.013-1.605,0-2.408H433.837z M434.15,416.885L434.15,416.885c0.071,0.805,0.155,1.608,0.249,2.411H128.314 c-0.105-0.8-0.197-1.603-0.275-2.411H434.15z M435.333,425.326L435.333,425.326c0.155,0.803,0.32,1.605,0.498,2.408H129.969 c-0.212-0.792-0.407-1.595-0.59-2.408h305.956H435.333z M437.384,433.767L437.384,433.767c0.236,0.803,0.485,1.605,0.745,2.408 h-305.07c-0.375-0.779-0.734-1.584-1.07-2.408h305.392H437.384z M440.306,442.207L440.306,442.207c0.32,0.8,0.65,1.605,0.994,2.408 H138.956c-0.766-0.737-1.49-1.542-2.177-2.408h303.525H440.306z"/><path style="fill:#FF5B61;" d="M240.174,410.619h45.698v101.376l-23.038-33.071l-22.657,33.071V410.619H240.174z"/><path style="fill:#FFFFFF;" d="M98.952,287.522L408.756,176.7c34.702-2.877,45.094,67.718,22.335,74.38L128.409,364.682 c-17.191,6.476-33.999-21.165-35.497-48.266c-0.797-14.395,3.119-13.96,19.515-20.383l-13.474-8.509V287.522z"/><path style="fill:#ECF0F1;" d="M440.83,240.523c-1.973,5.34-5.191,9.225-9.739,10.558L128.409,364.682 c-5.264,1.983-10.492,0.763-15.255-2.657c8.588,0.86,13.283-0.281,21.453-7.987L440.83,240.523z"/><path style="fill:#FFBA1B;" d="M302.271,214.823c23.009,3.315,39.445,57.944,27.948,74.118l-41.831,15.699 c7.588-25.621-8.947-68.321-31.93-73.415L302.271,214.823z"/><path style="fill:#F5A209;" d="M376.381,325.374l-46.162-36.433l-41.831,15.699l34.93,40.596l16.137-24.118L376.381,325.374z"/><g> <path style="fill:#ECF0F1;" d="M110.404,296.875l2.022-0.845c12.651,2.563,34.836,47.898,10.526,57.963 c-17.293,7.156-25.346-30.351-24.716-42.786c7.413-5.312,15.415,17.089,12.853,17.598l-5.133,1.015c0,0,0.157,9.805,5.133,10.481 l19.856-6.426c0,0-1.613-28.905-20.538-37H110.404z"/> <path style="fill:#ECF0F1;" d="M181.815,386.332h235.529h13.43h6.366c1.584-5.571,3.74-11.158,6.484-16.766 c0.008-0.018,0.016-0.037,0.026-0.055h-20.905H182.849h-31.636c-29.026,0-31.195,68.707-6.5,78.957 c-8.362-23.662-1.681-62.136,20.042-62.136h17.057H181.815z"/> </g><path style="fill:#666666;" d="M279.228,136.173l2.515,43.946c-14.29,24.221-59.904,42.199-104.815,41.742 c-42.799-0.433-85.022-18.19-96.631-40.554l-0.236-43.056l95.624,26.398l103.543-28.473V136.173z"/><path style="fill:#807D7D;" d="M21.068,120.883l154.615-52.234L330.3,120.883l-154.617,52.232L21.068,120.883z"/><path style="fill:#FF5B61;" d="M76.027,227.812l-7.079,45.331c-0.113,0.737,2.376,1.739,3.565,0.262 c1.561,1.87,3.63,1.104,4.249-0.189c0.784,1.283,2.631,1.991,3.971,0.076c1.188,1.477,3.843,0.449,3.649-0.79l-7.035-44.732 c-0.178-0.666-1.225-0.553-1.317,0.039L76.027,227.812z"/><g> <path style="fill:#FFFFFF;" d="M176.737,107.653c0.934-0.278,1.92,0.252,2.198,1.188c0.278,0.934-0.252,1.92-1.188,2.198 l-99.443,29.899v86.716c0,0.976-0.792,1.768-1.768,1.768s-1.768-0.792-1.768-1.768v-88.03l0,0c0-0.761,0.496-1.464,1.262-1.692 l100.704-30.28H176.737z"/> <path style="fill:#FFFFFF;" d="M76.667,233.577c3.864,0,7.017-3.153,7.017-7.019s-3.153-7.016-7.017-7.016 c-3.866,0-7.016,3.153-7.016,7.016C69.651,230.425,72.804,233.577,76.667,233.577z"/> </g><path style="fill:#ECF0F1;" d="M82.357,224.772c0,2.938-1.868,5.435-4.477,6.376c-0.719,0.257-1.49,0.399-2.298,0.399 c-0.045,0-0.089,0-0.131,0c-2.311-0.045-4.338-1.246-5.527-3.045c0.706,2.455,2.717,4.359,5.235,4.913 c0.485,0.105,0.991,0.163,1.511,0.163c0.535,0,1.06-0.06,1.563-0.176c3.124-0.711,5.453-3.502,5.453-6.843 c0-2.004-0.839-3.809-2.182-5.089c0.543,0.976,0.855,2.101,0.855,3.3L82.357,224.772z"/></symbol><symbol id="audiobook" viewBox="0 0 509.287 509.287"><title>audiobook</title><circle style="fill:#F1F3F7;" cx="254.644" cy="254.644" r="254.644"/><path style="fill:#4B5AA7;" d="M128.17,21.362c-23.735,0-43.062,19.327-43.062,43.062v380.44c0-23.735,19.327-43.062,43.062-43.062 h11.528V21.362H128.17z"/><rect x="139.359" y="21.362" style="fill:#6EB1E1;" width="284.821" height="380.44"/><path style="fill:#0090FF;" d="M97.992,444.864c0-16.615,13.563-30.177,30.177-30.177h296.35v-12.885H128.17 c-23.735,0-43.062,19.327-43.062,43.062s19.327,43.062,43.062,43.062h296.35v-12.885H128.17 C111.555,474.702,97.992,461.478,97.992,444.864z"/><g> <path style="fill:#FCFCFD;" d="M128.17,414.686c-16.615,0-30.177,13.563-30.177,30.177c0,16.615,13.224,30.177,30.177,30.177 c98.67,0,197.34,0,296.35,0c-11.868-18.31-11.868-41.706,0-60.016C325.51,414.686,226.84,414.686,128.17,414.686z"/> <path style="fill:#FCFCFD;" d="M365.521,95.958L226.84,131.56v137.325c-7.121-2.374-15.936-2.713-24.752-0.678 c-19.666,4.408-32.89,18.988-29.838,32.212c3.052,13.224,21.362,20.344,40.689,15.936c17.971-4.069,30.517-16.276,30.177-28.821 l0,0v-120.71l105.791-27.126v78.665c-7.121-2.373-15.936-2.713-24.752-0.678c-19.666,4.408-32.89,18.988-29.838,32.212 c3.052,13.224,21.362,20.344,40.689,15.936c17.971-4.069,30.517-16.276,30.177-28.821l0,0L365.521,95.958z"/> </g></symbol><symbol id="visa" viewBox="0 0 512 512"><title>visa</title><path style="fill:#FFFFFF;" d="M512,402.281c0,16.716-13.55,30.267-30.265,30.267H30.265C13.55,432.549,0,418.997,0,402.281V109.717 c0-16.716,13.55-30.266,30.265-30.266h451.47c16.716,0,30.265,13.551,30.265,30.266V402.281L512,402.281z"/><path style="fill:#F79F1A;" d="M113.64,258.035l-12.022-57.671c-2.055-7.953-8.035-10.319-15.507-10.632H30.993l-0.491,2.635 C73.431,202.774,101.836,227.88,113.64,258.035z"/><g> <polygon style="fill:#059BBF;" points="241.354,190.892 205.741,190.892 183.499,321.419 219.053,321.419 "/> <path style="fill:#059BBF;" d="M135.345,321.288l56.01-130.307h-37.691l-34.843,89.028l-3.719-13.442 c-6.83-16.171-26.35-39.446-49.266-54.098l31.85,108.863L135.345,321.288z"/> <path style="fill:#059BBF;" d="M342.931,278.75c0.132-14.819-9.383-26.122-29.887-35.458c-12.461-6.03-20.056-10.051-19.965-16.17 c0-5.406,6.432-11.213,20.368-11.213c11.661-0.179,20.057,2.367,26.624,5.003l3.218,1.475l4.826-28.277 c-7.059-2.637-18.094-5.451-31.895-5.451c-35.157,0-59.904,17.691-60.128,43.064c-0.224,18.763,17.692,29.216,31.181,35.469 c13.847,6.374,18.493,10.453,18.404,16.171c-0.089,8.743-11.035,12.73-21.264,12.73c-14.25,0-21.8-1.965-33.509-6.843l-4.55-2.09 l-4.998,29.249c8.303,3.629,23.668,6.801,39.618,6.933C318.361,323.342,342.663,305.876,342.931,278.75z"/> <path style="fill:#059BBF;" d="M385.233,301.855c4.065,0,40.382,0.045,45.566,0.045c1.072,4.545,4.333,19.565,4.333,19.565h33.011 L439.33,191.027h-27.472c-8.533,0-14.874,2.323-18.628,10.809l-52.845,119.629h37.392 C377.774,321.465,383.848,305.386,385.233,301.855z M409.622,238.645c-0.176,0.357,2.95-7.549,4.737-12.463l2.411,11.256 c0,0,6.792,31.182,8.22,37.704h-29.528C398.411,267.638,409.622,238.645,409.622,238.645z"/> <path style="fill:#059BBF;" d="M481.735,79.451H30.265C13.55,79.451,0,93.001,0,109.717v31.412h512v-31.412 C512,93.001,498.451,79.451,481.735,79.451z"/> </g><path style="fill:#F79F1A;" d="M481.735,432.549H30.265C13.55,432.549,0,418.998,0,402.283v-31.412h512v31.412 C512,418.998,498.451,432.549,481.735,432.549z"/><path style="opacity:0.15;fill:#202121;enable-background:new ;" d="M21.517,402.281V109.717 c0-16.716,13.551-30.266,30.267-30.266h-21.52C13.55,79.451,0,93.001,0,109.717v292.565c0,16.716,13.55,30.267,30.265,30.267h21.52 C35.069,432.549,21.517,418.997,21.517,402.281z"/></symbol><symbol id="cash" viewBox="0 0 491.52 491.52"><title>cash</title><path style="fill:#3EA69B;" d="M431.957,32.735c-32.993,81.28-49.571,159.864-62.67,247.191 c-45.232-3.372-65.948-5.897-110.691-13.531c7.968-87.956,10.486-168.258-2.308-255.135C332.135-7.761,362.811-4.011,431.957,32.735 z"/><path style="fill:#44C4A1;" d="M347.904,267.975c-26.46-2.83-39.334-4.405-65.704-8.03c1.068-9.834-4.669-18.583-12.83-19.643 c5.415-69.381,7.038-132.461,2.56-201.707c11.992-3.419,21.488-12.728,20.917-22.262c41.975-8.155,63.575-5.515,102.403,12.517 c-2.808,9.121,4.21,20.449,15.044,26.658c-20.744,66.162-34.111,127.811-45.286,196.484 C356.84,251.055,349.199,258.169,347.904,267.975z"/><g> <path style="fill:#3EA69B;" d="M334.481,102.258c25.378,3.102,41.537,26.073,37.685,45.426 c-3.852,19.353-24.34,31.222-46.568,28.505c-22.226-2.717-39.31-19.179-38.47-38.9C287.97,117.568,309.107,99.157,334.481,102.258z "/> <path style="fill:#3EA69B;" d="M343.623,26.162c5.614,0.686,9.552,5.288,8.854,9.879c-0.698,4.591-5.536,7.501-10.863,6.85 c-5.325-0.651-9.334-4.643-8.924-9.268C333.098,28.996,338.011,25.476,343.623,26.162z"/> <ellipse transform="matrix(-0.9928 -0.1194 0.1194 -0.9928 603.4669 524.0775)" style="fill:#3EA69B;" cx="317.439" cy="243.954" rx="6.83" ry="8.422"/> </g><path style="fill:#44C4A1;" d="M363.692,147.484c-2.367-0.581-3.551-0.86-5.926-1.394c-2.142,7.932-6.248,14.593-12.214,20.244 c-2.365-3.108-3.557-4.659-5.975-7.742c4.592-4.445,7.721-9.175,9.31-14.359c-6.34-1.224-9.524-1.748-15.914-2.605 c-2.343,6.646-4.865,11.42-7.595,14.334c-2.731,2.913-6.377,4.127-11,3.739c-4.625-0.387-8.236-2.442-10.919-6.218 c-2.679-3.775-3.987-8.511-3.881-14.308c-1.666-0.026-2.499-0.034-4.169-0.038c0.136-2.278,0.201-3.417,0.327-5.694 c1.721-0.009,2.579-0.008,4.296,0.007c0.87-6.559,3.35-12.777,7.646-18.617c3.059,2.381,4.565,3.61,7.53,6.127 c-3.039,3.856-5.014,8.104-6.008,12.718c6.315,0.26,9.468,0.479,15.75,1.111c0.012-0.11,0.017-0.165,0.029-0.274 c2.273-6.822,4.928-11.731,7.956-14.673c3.035-2.948,7.12-4.058,12.143-3.162c5.028,0.897,8.811,3.657,11.273,8.047 c2.471,4.391,3.253,9.627,2.478,15.716c2.361,0.549,3.542,0.836,5.895,1.434C364.306,144.117,364.101,145.239,363.692,147.484z M310.124,145.939c1.094,1.611,2.547,2.477,4.373,2.613c1.823,0.136,3.324-0.353,4.51-1.467c1.185-1.113,2.455-3.325,3.815-6.627 c-5.724-0.552-8.595-0.753-14.345-1.013C308.476,142.169,309.027,144.328,310.124,145.939z M348.765,131.262 c-1.018-1.924-2.519-3.079-4.487-3.425c-1.965-0.346-3.622,0.064-4.954,1.212c-1.332,1.156-2.738,3.477-4.204,6.964 c5.984,0.84,8.968,1.349,14.906,2.53C350.203,135.621,349.786,133.194,348.765,131.262z"/><path style="fill:#3EA69B;" d="M484.193,103.214c-54.483,65.688-92.783,134.72-130.349,213.352 c-41.469-19.522-60.178-29.4-99.954-52.814c32.932-81.082,58.535-156.821,71.673-244.355 C402.242,28.579,429.942,43.217,484.193,103.214z"/><path style="fill:#44C4A1;" d="M337.238,297.451c-24.01-12.239-35.636-18.382-59.331-31.348c3.848-9.001,0.997-19.42-6.354-23.373 c25.161-64.271,44.94-123.895,60.779-191.605c12.243,1.059,23.847-4.404,26.071-13.709c41.749,7.346,61.254,17.652,92.471,48.859 c-5.275,7.693-1.968,21.036,6.402,30.867c-38.613,55.673-68.999,109.699-99.361,171.219 C350.521,284.522,341.291,288.558,337.238,297.451z"/><g> <path style="fill:#3EA69B;" d="M372.603,134.438c22.917,12.109,31.432,39.859,22.217,56.943 c-9.216,17.084-31.876,21.028-51.948,10.422c-20.07-10.605-31.338-32.475-24.841-50.996 C324.527,132.286,349.69,122.331,372.603,134.438z"/> <path style="fill:#3EA69B;" d="M403.204,65.1c5.07,2.679,7.433,8.491,5.45,12.621c-1.983,4.13-7.366,5.164-12.176,2.622 c-4.808-2.54-7.415-7.796-5.692-12.063C392.508,64.011,398.137,62.422,403.204,65.1z"/> <path style="fill:#3EA69B;" d="M318.996,255.897c3.397,1.795,4.629,6.661,2.757,10.859c-1.87,4.199-6.118,6.162-9.486,4.382 c-3.367-1.779-4.601-6.638-2.759-10.852C311.349,256.072,315.599,254.102,318.996,255.897z"/> </g><path style="fill:#44C4A1;" d="M386.925,188.134c-2.053-1.407-3.083-2.1-5.158-3.466c-4.305,6.799-10.087,11.677-17.32,14.92 c-1.319-3.819-1.99-5.729-3.366-9.544c5.596-2.587,9.901-5.974,12.892-10.35c-5.595-3.454-8.432-5.102-14.18-8.223 c-4.122,5.499-7.87,9.147-11.276,10.944c-3.406,1.797-7.178,1.64-11.405-0.396c-4.228-2.037-7.021-5.3-8.447-9.871 c-1.421-4.569-1.278-9.561,0.499-15.056c-1.556-0.626-2.335-0.933-3.901-1.539c0.787-2.126,1.177-3.189,1.955-5.317 c1.618,0.611,2.423,0.922,4.029,1.555c2.714-5.947,6.841-10.989,12.563-15.014c2.181,3.375,3.239,5.091,5.293,8.562 c-3.968,2.585-7.051,5.928-9.318,9.974c5.851,2.524,8.746,3.87,14.458,6.737c0.043-0.1,0.064-0.151,0.107-0.251 c4.107-5.692,8.02-9.421,11.712-11.137c3.701-1.72,7.855-1.307,12.31,1.359c4.458,2.668,7.209,6.667,8.249,11.744 c1.047,5.082,0.266,10.362-2.223,15.894c2.057,1.375,3.081,2.075,5.117,3.494C388.475,185.142,387.958,186.139,386.925,188.134z M337.104,167.351c0.561,1.932,1.673,3.282,3.347,4.07c1.672,0.787,3.221,0.861,4.657,0.226c1.435-0.635,3.266-2.289,5.498-4.95 c-5.211-2.59-7.847-3.816-13.168-6.138C336.649,163.158,336.541,165.418,337.104,167.351z M377.612,167.27 c-0.399-2.203-1.473-3.846-3.22-4.887c-1.744-1.039-3.418-1.244-4.999-0.628c-1.585,0.623-3.576,2.331-5.961,5.131 c5.372,2.959,8.025,4.52,13.256,7.788C377.7,171.949,378.011,169.482,377.612,167.27z"/><path style="fill:#FCD462;" d="M405.915,240.282L405.915,240.282c0-18.771-14.885-33.987-33.243-33.987h-2.258 c-31.754-2.96-56.891-1.892-74.498,0h-4.421v0.509c-16.087,1.991-24.74,4.518-24.74,4.518l-1.766-51.248l-23.31,4.93 c-13.289,2.973-25.354,9.932-34.581,19.948l-50.874,55.225c-12.659,13.742-30.491,21.56-49.176,21.56h-6.435L75.476,444.257 l63.68,0.558c90.493,35.75,199.418,23.174,199.418,23.174h9.358c18.36,0,33.243-15.217,33.243-33.986v0 c0-13.675-7.919-25.433-19.307-30.825h2.299c18.36,0,33.243-15.217,33.243-33.986v0c0-13.49-7.708-25.11-18.848-30.599 c15.544-2.847,27.353-16.711,27.353-33.422v0c0-15.235-9.806-28.128-23.319-32.444C396.108,268.409,405.915,255.517,405.915,240.282 z"/><rect x="7.327" y="232.55" style="fill:#27A2DB;" width="106.691" height="258.97"/><circle style="fill:#1C75A1;" cx="60.672" cy="450.662" r="18.714"/></symbol><symbol id="wallet" viewBox="0 0 469.341 469.341"><title>wallet</title><path d="M437.337,384.007H362.67c-47.052,0-85.333-38.281-85.333-85.333c0-47.052,38.281-85.333,85.333-85.333h74.667 c5.896,0,10.667-4.771,10.667-10.667v-32c0-22.368-17.35-40.559-39.271-42.323l-61.26-107 c-5.677-9.896-14.844-16.969-25.813-19.906c-10.917-2.917-22.333-1.385-32.104,4.302L79.553,128.007H42.67 c-23.531,0-42.667,19.135-42.667,42.667v256c0,23.531,19.135,42.667,42.667,42.667h362.667c23.531,0,42.667-19.135,42.667-42.667 v-32C448.004,388.778,443.233,384.007,437.337,384.007z M360.702,87.411l23.242,40.596h-92.971L360.702,87.411z M121.953,128.007 L300.295,24.184c4.823-2.823,10.458-3.573,15.844-2.135c5.448,1.458,9.99,4.979,12.813,9.906l0.022,0.039l-164.91,96.013H121.953 z"/><path d="M437.337,234.674H362.67c-35.292,0-64,28.708-64,64c0,35.292,28.708,64,64,64h74.667c17.646,0,32-14.354,32-32v-64 C469.337,249.028,454.983,234.674,437.337,234.674z M362.67,320.007c-11.76,0-21.333-9.573-21.333-21.333 c0-11.76,9.573-21.333,21.333-21.333c11.76,0,21.333,9.573,21.333,21.333C384.004,310.434,374.431,320.007,362.67,320.007z"/></symbol><symbol id="placeholder" viewBox="0 0 512 512"><title>placeholder</title><g> <g> <path d="M256,0C156.748,0,76,80.748,76,180c0,33.534,9.289,66.26,26.869,94.652l142.885,230.257 c2.737,4.411,7.559,7.091,12.745,7.091c0.04,0,0.079,0,0.119,0c5.231-0.041,10.063-2.804,12.75-7.292L410.611,272.22 C427.221,244.428,436,212.539,436,180C436,80.748,355.252,0,256,0z M384.866,256.818L258.272,468.186l-129.905-209.34 C113.734,235.214,105.8,207.95,105.8,180c0-82.71,67.49-150.2,150.2-150.2S406.1,97.29,406.1,180 C406.1,207.121,398.689,233.688,384.866,256.818z"/> </g> </g><g> <g> <path d="M256,90c-49.626,0-90,40.374-90,90c0,49.309,39.717,90,90,90c50.903,0,90-41.233,90-90C346,130.374,305.626,90,256,90z M256,240.2c-33.257,0-60.2-27.033-60.2-60.2c0-33.084,27.116-60.2,60.2-60.2s60.1,27.116,60.1,60.2 C316.1,212.683,289.784,240.2,256,240.2z"/> </g> </g></symbol><symbol id="paytm" viewBox="0 0 512 512"><title>paytm</title><path style="fill:#F0EFEB;" d="M512,256c0,28.442-4.639,55.808-13.208,81.377C464.792,438.868,368.933,512,256,512 c-112.776,0-208.52-72.923-242.657-174.195C4.692,312.111,0,284.609,0,256c0-19.216,2.121-37.94,6.134-55.954 C31.66,85.567,133.831,0,256,0c124.74,0,228.645,89.213,251.382,207.318C510.412,223.075,512,239.355,512,256z"/><path style="fill:#00B8F8;" d="M512,256c0,28.442-4.639,55.808-13.208,81.377c-2.121,0-4.253-0.01-6.384-0.031 c-5.716-0.052-7.105-1.421-7.126-7.262c-0.063-28.902-0.052-57.804-0.115-86.695c-0.01-7.68-3.02-10.783-10.177-10.752 c-7.126,0.031-10.209,3.218-10.219,10.773c-0.021,28.4,0,56.79,0.01,85.18c0,8.035-1.296,9.289-9.488,9.237 c-5.58-0.031-11.149,0-16.729-0.031c-6.301-0.031-7.816-1.62-7.826-8.328c-0.042-28.557-0.042-57.125-0.084-85.682 c-0.01-7.534-2.926-10.888-9.404-11.076c-7.68-0.209-11.045,3.114-11.045,11.024c-0.021,28.568-0.01,57.125-0.01,85.682 c0,6.875-0.993,7.868-7.941,7.91c-6.416,0.031-12.842-0.021-19.257,0.042c-4.368,0.042-6.51-1.797-6.499-6.374 c0.042-41.577,0.042-83.143-0.031-124.719c-0.01-4.483,2.058-6.646,6.332-6.708c7.095-0.105,14.19,0.031,21.285-0.042 c4.472-0.052,5.966,2.842,6.541,7.011c11.128-8.077,22.768-9.937,35.349-5.59c3.751,1.296,7.022,3.365,9.916,5.935 c2.038,1.808,3.312,1.797,5.528,0.073c15.12-11.734,33.698-10.668,45.965,0.366C510.412,223.075,512,239.355,512,256z"/><g> <path style="fill:#002875;" d="M178.458,277.358h-0.063c0-14.524,0-29.048-0.01-43.572c-0.01-1.181-0.178-2.361-0.282-3.532 c-1.432-16.509-10.25-26.488-26.551-29.1c-14.409-2.299-28.985-0.679-43.489-0.94c-3.741-0.073-5.204,2.529-5.172,6.102 c0.052,5.914,0.01,11.828,0.021,17.732c0.021,6.625,1.379,8.046,7.983,8.088c8.777,0.063,17.565-0.073,26.342,0.031 c4.932,0.052,7.105,2.236,6.938,6.625c-0.157,4.389-2.466,6.29-6.855,6.154c-4.89-0.157-9.801-0.136-14.691-0.01 c-19.09,0.491-32.58,13.322-33.196,31.807c-0.293,8.934-0.188,17.899-0.104,26.843c0.188,21.473,12.204,33.458,33.729,33.604 c13.176,0.094,26.342,0.052,39.518,0c10.856-0.042,15.778-4.869,15.862-15.757C178.542,306.74,178.458,292.049,178.458,277.358z M138.083,306.813c-14.179,0.658-14.493,0.408-14.493-13.751c0-3.041-0.021-6.081,0.01-9.122c0.021-1.17-0.167-2.518,0.324-3.49 c3.427-6.823,9.78-3.459,14.9-3.845c3.772-0.293,5.663,2.424,5.601,6.29c-0.042,2.863-0.01,5.736-0.01,8.61 c0.01,2.873-0.031,5.747,0.021,8.61C144.509,304.462,142.514,306.604,138.083,306.813z"/> <path style="fill:#002875;" d="M279.345,256.622c-0.006,15.208,0.084,30.418-0.027,45.625 c-0.16,22.015-13.895,35.601-35.951,35.687c-11.491,0.045-22.981,0.04-34.472,0.003c-6.268-0.02-7.678-1.475-7.703-7.805 c-0.025-6.421,0.123-12.846-0.029-19.263c-0.113-4.738,2.089-6.827,6.68-6.842c10.139-0.031,20.276-0.147,30.415-0.141 c3.917,0.002,7.467-0.745,7.461-5.457c-0.007-4.728-3.595-5.394-7.493-5.45c-7.411-0.109-14.88,0.612-22.192-1.246 c-14.314-3.637-24.389-14.919-24.879-29.618c-0.625-18.737-0.285-37.507-0.312-56.263c-0.005-3.915,2.052-5.849,6.026-5.822 c6.928,0.048,13.857-0.036,20.785,0.028c5.399,0.049,6.945,1.563,6.967,6.953c0.06,14.363,0.025,28.726,0.047,43.091 c0.011,7.578,1.332,8.921,8.681,8.966c11.97,0.072,12.221-0.185,12.215-12.054c-0.007-13.18-0.028-26.362,0.025-39.542 c0.025-6.198,1.244-7.371,7.465-7.418c6.083-0.046,12.167-0.037,18.25-0.014c6.804,0.025,8.035,1.221,8.044,7.913 C279.365,224.177,279.35,240.4,279.345,256.622z"/> <path style="fill:#002875;" d="M80.959,232.302c-0.324-20.25-12.591-32.141-32.977-32.246c-13.949-0.063-27.909-0.031-41.848-0.01 C2.121,218.06,0,236.784,0,256c0,28.609,4.692,56.111,13.343,81.805c1.797,0,3.584-0.01,5.371-0.021 c6.322-0.031,7.91-1.526,7.941-7.628c0.052-9.801,0.157-19.602,0-29.403c-0.052-3.051,0.752-4.106,3.939-4.012 c6.917,0.219,13.855,0.219,20.773-0.042c16.238-0.627,28.275-11.786,29.236-27.92C81.335,256.658,81.147,244.464,80.959,232.302z M47.041,256.909c-0.063,3.824-2.152,5.925-5.987,6.029c-3.699,0.104-7.419-0.146-11.107,0.094c-2.905,0.188-3.354-1.17-3.26-3.594 c0.136-3.699,0.031-7.408,0.031-11.107c0.01-3.542,0.219-7.095-0.052-10.606c-0.24-3.229,1.055-4.106,4.065-3.908 c3.354,0.23,6.729-0.021,10.094,0.084c4.023,0.125,6.228,2.226,6.238,6.343C47.094,245.802,47.135,251.361,47.041,256.909z"/> </g><path style="fill:#00B8F8;" d="M345.372,285.036c0,15.366,0.025,30.733-0.014,46.099c-0.016,6.042-1.133,7.158-7.08,7.209 c-6.416,0.055-12.834,0.084-19.249-0.004c-5.779-0.079-7.077-1.411-7.085-7.276c-0.041-30.226-0.047-60.452-0.046-90.677 c0-6.628,0.037-6.628-6.333-6.636c-13-0.016-13-0.016-13.001-13.076c0-4.559,0.059-9.12-0.017-13.678 c-0.074-4.502,1.732-6.873,6.544-6.974c11.979-0.251,21.359-5.194,27.795-15.59c2.475-3.998,5.465-7.746,9.956-9.818 c5.137-2.37,8.272-0.505,8.358,5.07c0.088,5.74,0.107,11.483-0.01,17.222c-0.048,2.372,0.695,3.332,3.169,3.196 c3.198-0.176,6.414-0.015,9.622-0.029c3.73-0.017,5.653,1.838,5.677,5.545c0.048,7.429,0.076,14.858,0.033,22.288 c-0.022,3.865-1.905,5.998-5.954,5.84c-0.337-0.014-0.675-0.003-1.014,0.002c-11.352,0.177-11.352,0.177-11.353,11.774 C345.372,258.694,345.372,271.865,345.372,285.036z"/></symbol><symbol id="book-2" viewBox="0 0 412.72 412.72"><title>book-2</title><path d="M404.72,82.944c-0.027,0-0.054,0-0.08,0h0h-27.12v-9.28c0.146-3.673-2.23-6.974-5.76-8 c-18.828-4.934-38.216-7.408-57.68-7.36c-32,0-75.6,7.2-107.84,40c-32-33.12-75.92-40-107.84-40 c-19.464-0.048-38.852,2.426-57.68,7.36c-3.53,1.026-5.906,4.327-5.76,8v9.2H8c-4.418,0-8,3.582-8,8v255.52c0,4.418,3.582,8,8,8 c1.374-0.004,2.724-0.362,3.92-1.04c0.8-0.4,80.8-44.16,192.48-16h1.2h0.72c0.638,0.077,1.282,0.077,1.92,0 c112-28.4,192,15.28,192.48,16c2.475,1.429,5.525,1.429,8,0c2.46-1.42,3.983-4.039,4-6.88V90.944 C412.72,86.526,409.139,82.944,404.72,82.944z M16,333.664V98.944h19.12v200.64c-0.05,4.418,3.491,8.04,7.909,8.09 c0.432,0.005,0.864-0.025,1.291-0.09c16.55-2.527,33.259-3.864,50-4c23.19-0.402,46.283,3.086,68.32,10.32 C112.875,307.886,62.397,314.688,16,333.664z M94.32,287.664c-14.551,0.033-29.085,0.968-43.52,2.8V79.984 c15.576-3.47,31.482-5.241,47.44-5.28c29.92,0,71.2,6.88,99.84,39.2l0.24,199.28C181.68,302.304,149.2,287.664,94.32,287.664z M214.32,113.904c28.64-32,69.92-39.2,99.84-39.2c15.957,0.047,31.863,1.817,47.44,5.28v210.48 c-14.354-1.849-28.808-2.811-43.28-2.88c-54.56,0-87.12,14.64-104,25.52V113.904z M396.64,333.664 c-46.496-19.028-97.09-25.831-146.96-19.76c22.141-7.26,45.344-10.749,68.64-10.32c16.846,0.094,33.663,1.404,50.32,3.92 c4.368,0.663,8.447-2.341,9.11-6.709c0.065-0.427,0.095-0.859,0.09-1.291V98.944h19.12L396.64,333.664z"/></symbol><symbol id="purse" viewBox="0 0 512 512"><title>purse</title><path style="fill:#CE3A50;" d="M434.504,65.481c-0.013,0-0.025,0.002-0.039,0.002c0,0-394.371,0.007-394.462,0.007 c-0.16,0-0.31,0.013-0.465,0.02C17.662,65.76,0.003,83.563,0.003,105.498v7.375c0.004-1.27,0.068,2.475,0.169,1.229 c1.823,20.402,18.955,36.397,39.831,36.397c0.091,0,394.462-5.007,394.462-5.007c0.013,0,0.025,4.999,0.039,4.999 c26.191,0,47.5,16.309,47.5,42.501v-80.008C482.004,86.79,460.695,65.481,434.504,65.481z"/><path style="fill:#DA4453;" d="M434.504,145.488c-0.013,0-0.025,0.002-0.039,0.002c0,0-394.371,0.007-394.462,0.007 c-20.876,0-38.008-15.995-39.831-36.397C0.068,110.384,0,111.679,0,112.989c0,0.013,0.001,0.025,0.001,0.038v211.218v48.741v60.01 c0,0.014,0.002,0.025,0.002,0.039c0.021,26.175,21.321,47.463,47.499,47.463h387.002c26.189,0,47.496-21.305,47.5-47.494 c0-0.002,0-0.002,0-0.004v-33.754v-26.25V192.989C482.004,166.797,460.695,145.488,434.504,145.488z"/><path style="fill:#CE3A50;" d="M434.504,145.488c-0.013,0-0.025,0.002-0.039,0.002c0,0-11.252,0-29.866,0.001 C430.745,145.545,452,166.831,452,192.99v180.008v26.25v33.754c0,0.002,0,0.002,0,0.004c-0.004,26.189-21.311,47.494-47.5,47.494 h30.003c26.189,0,47.496-21.305,47.5-47.494c0-0.002,0-0.002,0-0.004v-33.754v-26.25V192.989 C482.004,166.797,460.695,145.488,434.504,145.488z"/><path style="fill:#BF2E4A;" d="M434.504,65.481c-0.013,0-0.025,0.002-0.039,0.002c0,0-11.252,0-29.866,0 C430.745,65.537,452,86.823,452,112.981v35.861c17.555,6.983,30.003,24.133,30.003,44.147v-80.008 C482.004,86.79,460.695,65.481,434.504,65.481z"/><path style="fill:#ED5565;" d="M497,245.493h-7.655H448.41h-63.918c-0.005,0-0.009,0.001-0.014,0.001 c-0.216,0-0.431,0.013-0.645,0.032c-0.246,0.021-0.488,0.055-0.726,0.1c-0.029,0.006-0.059,0.008-0.088,0.014 c-0.198,0.04-0.392,0.091-0.583,0.146c-0.04,0.011-0.081,0.019-0.121,0.031c-0.171,0.052-0.337,0.115-0.503,0.178 c-0.062,0.024-0.125,0.043-0.187,0.068c-0.138,0.058-0.271,0.124-0.405,0.189c-0.087,0.043-0.177,0.081-0.263,0.127 c-0.102,0.055-0.201,0.118-0.3,0.178c-0.112,0.066-0.226,0.13-0.334,0.203c-0.071,0.048-0.138,0.102-0.207,0.152 c-0.129,0.093-0.259,0.184-0.383,0.286c-0.051,0.042-0.097,0.089-0.147,0.132c-0.133,0.116-0.267,0.231-0.393,0.357 c-0.064,0.063-0.121,0.134-0.183,0.2c-0.109,0.117-0.22,0.233-0.322,0.358c-0.152,0.185-0.295,0.378-0.428,0.577 c-0.003,0.003-0.006,0.007-0.008,0.011l-39.998,60.001c-0.279,0.418-0.515,0.861-0.702,1.322c-0.071,0.172-0.128,0.347-0.185,0.522 c-0.017,0.053-0.039,0.104-0.055,0.157c-0.056,0.185-0.099,0.372-0.14,0.558c-0.011,0.049-0.025,0.097-0.035,0.145 c-0.033,0.168-0.055,0.337-0.076,0.506c-0.009,0.072-0.023,0.144-0.03,0.217c-0.014,0.139-0.017,0.277-0.022,0.416 c-0.005,0.106-0.014,0.212-0.014,0.319c0,0.103,0.009,0.206,0.013,0.309c0.005,0.142,0.009,0.285,0.023,0.427 c0.007,0.069,0.02,0.138,0.029,0.208c0.022,0.172,0.044,0.344,0.078,0.515c0.009,0.047,0.023,0.093,0.034,0.14 c0.041,0.189,0.085,0.376,0.141,0.563c0.016,0.053,0.038,0.104,0.055,0.158c0.057,0.174,0.114,0.349,0.185,0.521 c0.188,0.461,0.424,0.904,0.704,1.323l39.997,59.992c0.002,0.003,0.004,0.005,0.006,0.008c0.161,0.239,0.337,0.467,0.523,0.686 c0.061,0.072,0.125,0.139,0.189,0.208c0.128,0.139,0.259,0.273,0.397,0.402c0.081,0.076,0.161,0.15,0.243,0.221 c0.145,0.125,0.297,0.242,0.452,0.356c0.07,0.051,0.137,0.107,0.208,0.155c0.225,0.153,0.458,0.294,0.699,0.422 c0.061,0.032,0.124,0.059,0.185,0.089c0.192,0.096,0.388,0.185,0.589,0.264c0.078,0.031,0.156,0.059,0.235,0.086 c0.191,0.068,0.385,0.128,0.583,0.181c0.081,0.022,0.161,0.044,0.243,0.063c0.203,0.047,0.409,0.083,0.618,0.113 c0.076,0.011,0.151,0.026,0.227,0.035c0.258,0.029,0.52,0.045,0.786,0.047c0.021,0,0.042,0.004,0.064,0.004 c0.004,0,0.009-0.001,0.014-0.001H489.5c12.404,0,22.496-10.092,22.496-22.496v-112.5V230.57 C511.954,238.819,505.258,245.493,497,245.493z"/><path style="fill:#DA4453;" d="M497,245.493h-7.655h-7.352v112.5c0,12.404-10.092,22.496-22.496,22.496H489.5 c12.404,0,22.496-10.092,22.496-22.496v-112.5V230.57C511.954,238.819,505.258,245.493,497,245.493z"/><g> <path style="fill:#BF2E4A;" d="M497,215.493h-14.996v14.923c0,0.026-0.004,0.051-0.004,0.077s0.004,0.051,0.004,0.077v14.923H497 c8.284,0,15-6.716,15-15S505.284,215.493,497,215.493z"/> <path style="fill:#BF2E4A;" d="M424.496,120.497H47.503c-4.142,0-7.5-3.358-7.5-7.5s3.358-7.5,7.5-7.5h376.993 c4.142,0,7.5,3.358,7.5,7.5S428.638,120.497,424.496,120.497z"/> </g><path style="fill:#FFCE54;" d="M414.497,337.995c-13.785,0-25-11.215-25-25c0-13.786,11.215-25.001,25-25.001s25,11.215,25,25.001 C439.497,326.78,428.282,337.995,414.497,337.995z"/><path style="fill:#A0D468;" d="M368.547,111.496L89.56,31.784c-0.04-0.011-0.08-0.017-0.121-0.028 c-0.042-0.011-0.08-0.027-0.122-0.037c-0.083-0.021-0.166-0.031-0.249-0.049c-0.13-0.028-0.26-0.056-0.389-0.077 c-0.116-0.018-0.23-0.031-0.346-0.044c-0.136-0.015-0.272-0.03-0.408-0.038c-0.11-0.006-0.219-0.007-0.328-0.009 c-0.14-0.002-0.279-0.003-0.418,0.003c-0.104,0.004-0.208,0.014-0.311,0.022c-0.142,0.012-0.283,0.025-0.422,0.045 c-0.099,0.014-0.196,0.033-0.295,0.051c-0.142,0.026-0.283,0.053-0.423,0.087c-0.093,0.023-0.185,0.05-0.277,0.076 c-0.141,0.04-0.281,0.081-0.419,0.13c-0.087,0.031-0.172,0.065-0.258,0.098c-0.139,0.055-0.277,0.111-0.413,0.173 c-0.081,0.038-0.161,0.079-0.241,0.119c-0.134,0.068-0.268,0.138-0.398,0.214c-0.076,0.045-0.15,0.093-0.226,0.14 c-0.128,0.081-0.254,0.163-0.377,0.251c-0.073,0.052-0.144,0.108-0.215,0.163c-0.118,0.091-0.234,0.184-0.347,0.282 c-0.071,0.062-0.138,0.127-0.207,0.191c-0.105,0.1-0.21,0.201-0.31,0.307c-0.068,0.072-0.133,0.148-0.199,0.223 c-0.092,0.106-0.183,0.212-0.269,0.324c-0.066,0.086-0.128,0.174-0.191,0.262c-0.077,0.109-0.153,0.218-0.225,0.331 c-0.063,0.1-0.121,0.203-0.179,0.306c-0.062,0.11-0.124,0.22-0.181,0.333s-0.107,0.229-0.159,0.345 c-0.049,0.113-0.098,0.225-0.143,0.341c-0.046,0.121-0.087,0.247-0.127,0.372c-0.026,0.081-0.058,0.157-0.081,0.239 c-0.012,0.04-0.017,0.081-0.028,0.121c-0.011,0.041-0.027,0.08-0.037,0.121l-18.575,74.319h306.901V111.496z"/></symbol><symbol id="book-1" viewBox="0 0 480 480"><title>book-1</title><linearGradient id="SVGID_1_" gradientUnits="userSpaceOnUse" x1="-26.875" y1="562.0394" x2="-26.875" y2="614.6404" gradientTransform="matrix(8 0 0 -8 455 4941.1294)"> <stop offset="0" style="stop-color:#006DF0"/> <stop offset="1" style="stop-color:#00E7F0"/> </linearGradient><path style="fill:url(#SVGID_1_);" d="M472,88.014h-32v-40c0.016-4.418-3.553-8.013-7.972-8.028c-0.234-0.001-0.467,0.009-0.7,0.028 l-20.872,1.76c-50.615,4.186-100.259,16.291-147.12,35.872L240,87.35l-23.312-9.672c-46.866-19.584-96.516-31.691-147.136-35.88 l-20.88-1.784c-4.403-0.371-8.273,2.897-8.644,7.3c-0.02,0.233-0.029,0.467-0.028,0.7v40H8c-4.418,0-8,3.582-8,8v336 c0,4.418,3.582,8,8,8h464c4.418,0,8-3.582,8-8v-336C480,91.596,476.418,88.014,472,88.014z M269.488,92.43 c45.327-18.938,93.346-30.643,142.304-34.688L424,56.718v319.928l-13.144,1.072c-50.629,4.203-100.293,16.279-147.2,35.792 L248,420.014V101.35L269.488,92.43z M56,56.718l12.208,1.024c48.966,4.046,96.993,15.754,142.328,34.696L232,101.35v318.664 l-14.752-6.16c-46.83-19.62-96.45-31.768-147.048-36L56,376.67L56,56.718z M16,104.014h24v280c-0.015,4.166,3.169,7.646,7.32,8 l21.528,1.84c5.867,0.491,11.733,1.096,17.6,1.816c1.96,0.232,3.904,0.544,5.864,0.8c3.88,0.52,7.76,1.04,11.624,1.656 c2.304,0.368,4.6,0.8,6.896,1.208c3.504,0.616,7.008,1.232,10.496,1.92c2.4,0.48,4.8,1.008,7.2,1.528 c3.368,0.72,6.736,1.456,10.088,2.256c2.4,0.576,4.84,1.192,7.256,1.808c3.304,0.848,6.6,1.712,9.888,2.624 c2.4,0.672,4.8,1.376,7.2,2.08c3.264,0.965,6.52,1.968,9.768,3.008c2.379,0.757,4.752,1.536,7.12,2.336 c3.272,1.096,6.52,2.248,9.768,3.424c2.304,0.8,4.616,1.672,6.904,2.544c0.992,0.376,1.976,0.8,2.96,1.168H16L16,104.014z M464,424.014H280.64c1.096-0.424,2.184-0.872,3.28-1.288c2.4-0.92,4.8-1.792,7.256-2.664c3.136-1.136,6.285-2.237,9.448-3.304 c2.464-0.8,4.944-1.6,7.416-2.4c3.16-1.008,6.336-1.968,9.512-2.912c2.496-0.736,5-1.464,7.504-2.152c3.2-0.896,6.4-1.736,9.68-2.56 c2.48-0.632,4.968-1.264,7.464-1.856c3.328-0.8,6.68-1.52,10.032-2.232c2.4-0.52,4.8-1.056,7.248-1.536 c3.52-0.696,7.056-1.312,10.584-1.928c2.288-0.4,4.568-0.8,6.864-1.2c3.944-0.624,7.896-1.16,11.856-1.688 c1.896-0.248,3.792-0.552,5.696-0.8c5.867-0.709,11.763-1.315,17.688-1.816l20.488-1.664c4.16-0.342,7.358-3.826,7.344-8v-280h24 L464,424.014z"/></symbol><symbol id="study" viewBox="0 0 496 496"><title>study</title><path d="M400,0H96c-4.418,0-8,3.582-8,8v480c0,4.418,3.582,8,8,8h304c4.418,0,8-3.582,8-8V8C408,3.582,404.418,0,400,0z M152,480 h-48V16h48V480z M392,480H168V16h224V480z"/><path d="M192,88h176c4.418,0,8-3.582,8-8s-3.582-8-8-8H192c-4.418,0-8,3.582-8,8S187.582,88,192,88z"/><path d="M192,120h176c4.418,0,8-3.582,8-8s-3.582-8-8-8H192c-4.418,0-8,3.582-8,8S187.582,120,192,120z"/><path d="M192,152h176c4.418,0,8-3.582,8-8s-3.582-8-8-8H192c-4.418,0-8,3.582-8,8S187.582,152,192,152z"/></symbol><symbol id="credit-card" viewBox="0 0 512 512"><title>credit-card</title><circle style="fill:#FF1B1B;" cx="256" cy="256" r="256"/><path style="fill:#D60000;" d="M512,256c0-6.666-0.256-13.272-0.756-19.81l-152.8-152.799L112.301,381.342l130.311,130.311 C247.046,511.882,251.509,512,256,512C397.385,512,512,397.385,512,256z"/><path style="fill:#1F66CC;" d="M405.825,273.19L143.531,374.593c-13.657,5.28-29.009-1.511-34.289-15.169l-56.57-146.325 c-5.28-13.657,1.511-29.009,15.169-34.289L330.135,77.407c13.657-5.28,29.009,1.511,34.289,15.169l56.569,146.326 C426.273,252.558,419.482,267.91,405.825,273.19z"/><path style="fill:#154797;" d="M420.993,238.901L364.424,92.575c-5.28-13.657-20.632-20.448-34.289-15.169l-75.159,29.057v225.045 l150.849-58.318C419.482,267.91,426.273,252.558,420.993,238.901z"/><path style="fill:#7AE5FE;" d="M413.94,390.952H132.726c-14.642,0-26.512-11.87-26.512-26.512V207.56 c0-14.642,11.87-26.512,26.512-26.512H413.94c14.642,0,26.512,11.87,26.512,26.512v156.88 C440.453,379.082,428.583,390.952,413.94,390.952z"/><path style="fill:#00BED2;" d="M413.94,181.048H254.976v209.905H413.94c14.642,0,26.512-11.87,26.512-26.512V207.56 C440.453,192.918,428.583,181.048,413.94,181.048z"/><rect x="106.21" y="228.95" style="fill:#37474F;" width="334.24" height="61.44"/><rect x="254.98" y="228.95" style="fill:#263238;" width="185.48" height="61.44"/></symbol><symbol id="book" viewBox="0 0 512.002 512.002"><title>book</title><path style="fill:#2D404E;" d="M255.173,488c-25.777,0-47.042-13.8-54.262-33.333c-25.545-10.69-61.154-20.844-104.261-20.844 c-18.784,0-37.814,1.989-56.562,5.912L0,448.124V69.001l33.273-43.415C34.589,25.384,179.267,72.354,256,122.977 c76.732-50.623,221.41-97.592,222.727-97.391l33.143,43.138l0.131,379.4l-40.088-8.389c-18.746-3.922-37.775-5.912-56.561-5.912 c-45.254,0-82.409,11.582-106.252,21.717C301.578,474.611,280.564,488,255.173,488z"/><path style="fill:#253744;" d="M33.275,25.587l-11.611,15.15v382.347c0,0,27.983-17.191,96.748-12.755 s107.122,28.375,107.122,28.375s-2.589,27.635,30.468,27.635V112.257L33.275,25.587z"/><path style="fill:#253744;" d="M478.728,25.587l11.611,15.15v382.347c0,0-27.983-17.191-96.748-12.755 s-107.122,28.375-107.122,28.375s2.589,27.635-30.468,27.635V112.257L478.728,25.587z"/><path style="fill:#D1D5D5;" d="M256.002,413.119v41.608c13.049,0,23.628-6.652,23.628-14.86v-11.888 C279.63,419.771,269.05,413.119,256.002,413.119z"/><path style="opacity:0.7;fill:#C6CBCB;enable-background:new ;" d="M232.374,427.979v11.888c0,8.208,10.575,14.86,23.628,14.86 v-41.608C242.949,413.119,232.374,419.771,232.374,427.979z"/><path style="fill:#C6CBCB;" d="M256.002,90.163v356.146c0,0-91.804-66.539-222.727-39.141V25.587 C33.275,25.587,148.479,7.975,256.002,90.163z"/><path style="fill:#E2E5E7;" d="M256.002,90.163v356.146c0,0,91.805-66.539,222.727-39.141V25.587 C478.728,25.587,363.524,7.975,256.002,90.163z"/><path style="opacity:0.7;fill:#E2E5E7;enable-background:new ;" d="M43.455,41.075V382.68c0,0,65.438-9.982,125.329,12.2 c0,0-31.055-28.837-92.056-42.146L63.235,41.075H43.455L43.455,41.075z"/><polygon style="opacity:0.6;fill:#253744;enable-background:new ;" points="0.002,69.001 0.002,448.125 33.275,407.168 33.275,25.587 "/><polygon style="opacity:0.6;fill:#253744;enable-background:new ;" points="512.002,69.001 512.002,448.125 478.728,407.168 478.728,25.587 "/></symbol><symbol id="textbook" viewBox="0 0 96.737 96.737"><title>textbook</title><path style="fill:#030104;" d="M81.612,24.082L36.618,0.89c-6.162-3.247-18.314,3.026-21.805,8.546 c-1.559,2.466-1.443,4.249-1.443,5.256l0.555,52.373c0.037,1.111,1.438,2.612,2.637,3.348c2.496,1.531,40.297,25.131,41.369,25.799 c0.576,0.358,1.256,0.525,1.928,0.525c0.572,0,1.146-0.127,1.666-0.385c1.136-0.558,1.843-1.642,1.843-2.82V38.523 c0-1.145-0.668-2.203-1.756-2.775l-40.896-22.83c0.463-0.899,2.283-2.801,5.627-4.552c3.523-1.845,6.162-1.148,6.768-0.914 c0,0,39.248,21.004,40.449,21.629c1.195,0.624,1.219,0.718,1.219,1.786c0,1.067,0,52.2,0,52.2c0,2.604,2.645,3.67,4.584,3.67 c1.938,0,4.006-1.9,4.006-3.67V26.858C83.368,25.713,82.696,24.654,81.612,24.082z"/></symbol></svg>